<?xml version="1.0" encoding="UTF-8" standalone="no"?>
<!-- This is a Stata 17.0 generated SVG file (http://www.stata.com) -->

<svg version="1.1" width="5.500in" height="4.000in" viewBox="0 0 3960 2880" xmlns="http://www.w3.org/2000/svg" xmlns:xlink="http://www.w3.org/1999/xlink">
	<desc>Stata Graph - 安慰剂1</desc>
	<rect x="0" y="0" width="3960" height="2880" style="fill:#FFFFFF;stroke:none"/>
	<rect x="0.00" y="0.00" width="3959.88" height="2880.00" style="fill:#FFFFFF"/>
	<rect x="2.88" y="2.88" width="3954.12" height="2874.24" style="fill:none;stroke:#FFFFFF;stroke-width:5.76"/>
	<rect x="495.00" y="100.86" width="3364.02" height="2253.81" style="fill:#FFFFFF"/>
	<rect x="497.88" y="103.74" width="3358.26" height="2248.05" style="fill:none;stroke:#FFFFFF;stroke-width:5.76"/>
	<line x1="495.00" y1="2291.30" x2="3859.02" y2="2291.30" style="stroke:#E8E8E8;stroke-width:8.64"/>
	<line x1="495.00" y1="1866.33" x2="3859.02" y2="1866.33" style="stroke:#E8E8E8;stroke-width:8.64"/>
	<line x1="495.00" y1="1441.49" x2="3859.02" y2="1441.49" style="stroke:#E8E8E8;stroke-width:8.64"/>
	<line x1="495.00" y1="1016.64" x2="3859.02" y2="1016.64" style="stroke:#E8E8E8;stroke-width:8.64"/>
	<line x1="495.00" y1="591.67" x2="3859.02" y2="591.67" style="stroke:#E8E8E8;stroke-width:8.64"/>
	<line x1="495.00" y1="166.82" x2="3859.02" y2="166.82" style="stroke:#E8E8E8;stroke-width:8.64"/>
	<line x1="4099.84" y1="2354.66" x2="4099.84" y2="2297.12" style="stroke:#000000;stroke-width:8.64"/>
	<line x1="4099.84" y1="2268.28" x2="4099.84" y2="2210.74" style="stroke:#000000;stroke-width:8.64"/>
	<line x1="4099.84" y1="2181.90" x2="4099.84" y2="2124.24" style="stroke:#000000;stroke-width:8.64"/>
	<line x1="4099.84" y1="2095.52" x2="4099.84" y2="2037.85" style="stroke:#000000;stroke-width:8.64"/>
	<line x1="4099.84" y1="2009.02" x2="4099.84" y2="1951.47" style="stroke:#000000;stroke-width:8.64"/>
	<line x1="4099.84" y1="1922.64" x2="4099.84" y2="1865.09" style="stroke:#000000;stroke-width:8.64"/>
	<line x1="4099.84" y1="1836.26" x2="4099.84" y2="1778.71" style="stroke:#000000;stroke-width:8.64"/>
	<line x1="4099.84" y1="1749.88" x2="4099.84" y2="1692.33" style="stroke:#000000;stroke-width:8.64"/>
	<line x1="4099.84" y1="1663.50" x2="4099.84" y2="1605.95" style="stroke:#000000;stroke-width:8.64"/>
	<line x1="4099.84" y1="1577.12" x2="4099.84" y2="1519.57" style="stroke:#000000;stroke-width:8.64"/>
	<line x1="4099.84" y1="1490.74" x2="4099.84" y2="1433.19" style="stroke:#000000;stroke-width:8.64"/>
	<line x1="4099.84" y1="1404.36" x2="4099.84" y2="1346.81" style="stroke:#000000;stroke-width:8.64"/>
	<line x1="4099.84" y1="1317.98" x2="4099.84" y2="1260.31" style="stroke:#000000;stroke-width:8.64"/>
	<line x1="4099.84" y1="1231.60" x2="4099.84" y2="1173.93" style="stroke:#000000;stroke-width:8.64"/>
	<line x1="4099.84" y1="1145.22" x2="4099.84" y2="1087.55" style="stroke:#000000;stroke-width:8.64"/>
	<line x1="4099.84" y1="1058.71" x2="4099.84" y2="1001.17" style="stroke:#000000;stroke-width:8.64"/>
	<line x1="4099.84" y1="972.33" x2="4099.84" y2="914.79" style="stroke:#000000;stroke-width:8.64"/>
	<line x1="4099.84" y1="885.95" x2="4099.84" y2="828.41" style="stroke:#000000;stroke-width:8.64"/>
	<line x1="4099.84" y1="799.57" x2="4099.84" y2="742.03" style="stroke:#000000;stroke-width:8.64"/>
	<line x1="4099.84" y1="713.19" x2="4099.84" y2="655.65" style="stroke:#000000;stroke-width:8.64"/>
	<line x1="4099.84" y1="626.81" x2="4099.84" y2="569.27" style="stroke:#000000;stroke-width:8.64"/>
	<line x1="4099.84" y1="540.43" x2="4099.84" y2="482.89" style="stroke:#000000;stroke-width:8.64"/>
	<line x1="4099.84" y1="454.05" x2="4099.84" y2="396.51" style="stroke:#000000;stroke-width:8.64"/>
	<line x1="4099.84" y1="367.67" x2="4099.84" y2="310.00" style="stroke:#000000;stroke-width:8.64"/>
	<line x1="4099.84" y1="281.29" x2="4099.84" y2="223.62" style="stroke:#000000;stroke-width:8.64"/>
	<line x1="4099.84" y1="194.91" x2="4099.84" y2="137.24" style="stroke:#000000;stroke-width:8.64"/>
	<line x1="4099.84" y1="108.41" x2="4099.84" y2="100.86" style="stroke:#000000;stroke-width:8.64"/>
	<path d=" M560.84 2212.84 L570.86 2208.51 L580.76 2204.18 L590.66 2199.72 L600.56 2195.15 L610.58 2190.57 L620.48 2185.74 L630.38 2180.79 L640.28 2175.72 L650.31 2170.40 L660.21 2164.83 L670.11 2158.89 L671.84 2157.90 L673.45 2156.91 L675.18 2155.79 L676.91 2154.80 L678.65 2153.69 L680.25 2152.57 L681.99 2151.58 L683.72 2150.47 L685.45 2149.36 L687.06 2148.24 L688.79 2147.13 L692.38 2144.78 L695.97 2142.43 L699.56 2139.95 L703.15 2137.48 L706.74 2135.00 L710.33 2132.53 L714.04 2130.05 L717.63 2127.45 L721.22 2124.85 L724.80 2122.13 L728.39 2119.53 L732.23 2116.56 L736.07 2113.72 L739.78 2110.75 L743.61 2107.65 L747.45 2104.68 L751.29 2101.59 L755.12 2098.49 L758.96 2095.28 L762.80 2092.06 L766.63 2088.84 L770.34 2085.50 L772.70 2083.52 L775.17 2081.42 L777.52 2079.31 L779.87 2077.21 L782.22 2075.10 L784.58 2073.00 L786.93 2070.90 L789.28 2068.67 L791.63 2066.57 L793.98 2064.34 L796.33 2062.11 L797.32 2061.12 L798.31 2060.25 L799.30 2059.26 L800.29 2058.27 L801.41 2057.41 L802.40 2056.42 L803.39 2055.43 L804.38 2054.44 L805.37 2053.45 L806.36 2052.58 L807.35 2051.59 L810.07 2048.99 L812.67 2046.27 L815.39 2043.67 L817.99 2040.95 L820.71 2038.23 L823.31 2035.50 L826.03 2032.78 L828.75 2030.06 L831.35 2027.21 L834.08 2024.37 L836.67 2021.64 L838.78 2019.29 L840.88 2017.06 L842.99 2014.71 L845.09 2012.49 L847.32 2010.13 L849.42 2007.78 L851.52 2005.43 L853.63 2003.08 L855.73 2000.73 L857.84 1998.38 L859.94 1995.90 L861.55 1994.05 L863.28 1992.19 L864.89 1990.21 L866.50 1988.35 L868.23 1986.37 L869.84 1984.39 L871.45 1982.54 L873.18 1980.56 L874.79 1978.58 L876.52 1976.60 L878.13 1974.62 L882.09 1969.79 L886.05 1964.84 L890.13 1960.01 L894.09 1954.94 L898.05 1949.99 L902.01 1944.79 L906.10 1939.72 L910.06 1934.52 L914.02 1929.20 L917.98 1923.88 L921.94 1918.56 L923.18 1916.95 L924.41 1915.34 L925.53 1913.73 L926.76 1912.12 L927.88 1910.51 L929.12 1908.78 L930.23 1907.17 L931.47 1905.56 L932.70 1903.83 L933.82 1902.22 L935.06 1900.61 L937.53 1897.15 L939.88 1893.68 L942.36 1890.22 L944.83 1886.75 L947.31 1883.16 L949.66 1879.70 L952.13 1876.11 L954.61 1872.52 L957.08 1868.93 L959.43 1865.22 L961.91 1861.63 L963.15 1859.90 L964.26 1858.04 L965.50 1856.31 L966.74 1854.45 L967.85 1852.72 L969.09 1850.86 L970.20 1849.13 L971.44 1847.27 L972.68 1845.42 L973.79 1843.56 L975.03 1841.83 L976.14 1839.97 L977.38 1838.12 L978.49 1836.26 L979.73 1834.40 L980.97 1832.55 L982.08 1830.69 L983.32 1828.83 L984.43 1826.98 L985.67 1825.12 L986.91 1823.27 L988.02 1821.41 L992.35 1814.48 L996.68 1807.43 L1001.01 1800.37 L1005.35 1793.32 L1009.68 1786.02 L1014.01 1778.84 L1018.34 1771.41 L1022.67 1764.11 L1027.13 1756.56 L1031.46 1749.01 L1035.79 1741.46 L1036.90 1739.36 L1038.14 1737.13 L1039.38 1735.03 L1040.61 1732.93 L1041.73 1730.70 L1042.96 1728.59 L1044.20 1726.49 L1045.44 1724.26 L1046.55 1722.16 L1047.79 1719.93 L1049.03 1717.70 L1051.38 1713.50 L1053.73 1709.29 L1056.08 1704.96 L1058.43 1700.63 L1060.79 1696.29 L1063.14 1691.96 L1065.36 1687.63 L1067.71 1683.30 L1070.07 1678.84 L1072.42 1674.51 L1074.77 1670.06 L1078.36 1663.25 L1081.95 1656.45 L1085.54 1649.52 L1089.00 1642.71 L1092.59 1635.65 L1096.18 1628.72 L1099.77 1621.67 L1103.23 1614.62 L1106.82 1607.44 L1110.41 1600.39 L1114.00 1593.08 L1115.73 1589.62 L1117.46 1586.03 L1119.20 1582.56 L1120.93 1578.98 L1122.66 1575.39 L1124.39 1571.80 L1126.13 1568.21 L1127.86 1564.62 L1129.59 1561.03 L1131.32 1557.44 L1133.06 1553.73 L1134.79 1550.14 L1136.52 1546.43 L1138.25 1542.84 L1140.11 1539.13 L1141.84 1535.41 L1143.57 1531.70 L1145.31 1527.99 L1147.04 1524.28 L1148.77 1520.56 L1150.50 1516.85 L1152.24 1513.01 L1154.22 1508.93 L1156.07 1504.97 L1157.93 1500.89 L1159.79 1496.80 L1161.77 1492.72 L1163.62 1488.51 L1165.48 1484.43 L1167.33 1480.34 L1169.31 1476.14 L1171.17 1472.05 L1173.03 1467.84 L1174.51 1464.63 L1176.00 1461.41 L1177.48 1458.19 L1178.84 1454.85 L1180.33 1451.63 L1181.81 1448.29 L1183.30 1445.07 L1184.78 1441.86 L1186.27 1438.51 L1187.63 1435.17 L1189.11 1431.96 L1189.73 1430.59 L1190.35 1429.23 L1190.97 1427.87 L1191.59 1426.51 L1192.08 1425.15 L1192.70 1423.91 L1193.32 1422.55 L1193.94 1421.19 L1194.56 1419.83 L1195.05 1418.47 L1195.67 1417.11 L1197.78 1412.40 L1199.88 1407.58 L1201.98 1402.87 L1204.09 1398.17 L1206.07 1393.34 L1208.17 1388.52 L1210.28 1383.69 L1212.38 1378.99 L1214.48 1374.16 L1216.59 1369.34 L1218.57 1364.51 L1219.43 1362.65 L1220.18 1360.80 L1220.92 1358.94 L1221.78 1357.08 L1222.53 1355.23 L1223.39 1353.50 L1224.14 1351.64 L1224.88 1349.78 L1225.74 1347.93 L1226.49 1346.07 L1227.23 1344.21 L1229.70 1338.52 L1232.18 1332.71 L1234.65 1327.01 L1237.01 1321.20 L1239.48 1315.38 L1241.96 1309.69 L1244.43 1303.87 L1246.78 1298.05 L1249.26 1292.11 L1251.73 1286.30 L1254.21 1280.48 L1255.57 1277.02 L1257.05 1273.67 L1258.41 1270.21 L1259.90 1266.74 L1261.26 1263.28 L1262.74 1259.81 L1264.11 1256.47 L1265.59 1253.01 L1266.95 1249.54 L1268.44 1246.08 L1269.80 1242.61 L1270.79 1240.26 L1271.78 1237.79 L1272.77 1235.43 L1273.76 1233.08 L1274.75 1230.73 L1275.74 1228.38 L1276.73 1225.91 L1277.72 1223.55 L1278.59 1221.20 L1279.58 1218.73 L1280.57 1216.38 L1282.30 1212.29 L1284.03 1208.09 L1285.64 1203.88 L1287.37 1199.79 L1289.10 1195.59 L1290.84 1191.38 L1292.45 1187.29 L1294.18 1183.09 L1295.91 1178.88 L1297.52 1174.67 L1299.25 1170.46 L1299.87 1168.86 L1300.61 1167.25 L1301.23 1165.64 L1301.85 1164.03 L1302.47 1162.54 L1303.21 1160.94 L1303.83 1159.33 L1304.45 1157.72 L1305.07 1156.11 L1305.81 1154.50 L1306.43 1152.89 L1308.16 1148.56 L1309.89 1144.10 L1311.63 1139.77 L1313.36 1135.44 L1315.22 1131.11 L1316.95 1126.78 L1318.68 1122.45 L1320.41 1117.99 L1322.15 1113.66 L1323.88 1109.33 L1325.61 1105.00 L1328.09 1099.06 L1330.44 1092.99 L1332.79 1087.05 L1335.26 1081.11 L1337.61 1075.05 L1339.97 1069.11 L1342.44 1063.17 L1344.79 1057.11 L1347.14 1051.17 L1349.62 1045.23 L1351.97 1039.16 L1352.71 1037.30 L1353.45 1035.45 L1354.20 1033.59 L1354.94 1031.74 L1355.68 1029.88 L1356.42 1028.02 L1357.17 1026.17 L1357.91 1024.31 L1358.65 1022.45 L1359.39 1020.60 L1360.14 1018.74 L1361.99 1013.92 L1363.97 1009.09 L1365.95 1004.14 L1367.81 999.31 L1369.79 994.49 L1371.65 989.54 L1373.63 984.71 L1375.61 979.88 L1377.46 975.06 L1379.44 970.23 L1381.42 965.28 L1382.78 961.69 L1384.27 957.98 L1385.75 954.39 L1387.24 950.68 L1388.60 947.09 L1390.08 943.38 L1391.57 939.79 L1393.05 936.07 L1394.54 932.49 L1395.90 928.77 L1397.39 925.18 L1398.25 923.08 L1399.12 920.85 L1399.98 918.75 L1400.85 916.64 L1401.72 914.42 L1402.58 912.31 L1403.45 910.21 L1404.32 907.98 L1405.06 905.88 L1405.92 903.77 L1406.79 901.55 L1408.52 897.22 L1410.38 892.88 L1412.11 888.55 L1413.84 884.10 L1415.58 879.77 L1417.31 875.43 L1419.04 871.10 L1420.77 866.77 L1422.51 862.44 L1424.36 858.11 L1426.10 853.78 L1426.96 851.67 L1427.70 849.57 L1428.57 847.47 L1429.44 845.36 L1430.30 843.26 L1431.17 841.16 L1432.04 839.05 L1432.90 836.95 L1433.77 834.84 L1434.63 832.74 L1435.38 830.64 L1437.48 825.44 L1439.58 820.24 L1441.69 815.04 L1443.79 809.97 L1445.90 804.77 L1448.00 799.70 L1450.10 794.50 L1452.21 789.43 L1454.31 784.23 L1456.41 779.15 L1458.52 774.08 L1460.25 769.87 L1461.98 765.67 L1463.72 761.46 L1465.45 757.37 L1467.18 753.17 L1468.91 749.08 L1470.65 744.87 L1472.38 740.79 L1474.11 736.58 L1475.84 732.50 L1477.58 728.29 L1478.57 725.94 L1479.56 723.47 L1480.55 721.11 L1481.54 718.64 L1482.65 716.16 L1483.64 713.81 L1484.63 711.34 L1485.62 708.99 L1486.73 706.51 L1487.72 704.16 L1488.71 701.81 L1490.94 696.61 L1493.17 691.41 L1495.27 686.22 L1497.50 681.14 L1499.73 675.94 L1501.95 670.87 L1504.06 665.80 L1506.29 660.60 L1508.51 655.52 L1510.74 650.45 L1512.84 645.50 L1513.71 643.64 L1514.45 641.79 L1515.32 639.93 L1516.06 638.20 L1516.93 636.34 L1517.67 634.49 L1518.41 632.75 L1519.28 630.90 L1520.02 629.04 L1520.89 627.31 L1521.63 625.45 L1523.12 622.23 L1524.48 619.02 L1525.96 615.80 L1527.32 612.58 L1528.81 609.36 L1530.17 606.15 L1531.65 603.05 L1533.14 599.83 L1534.50 596.62 L1535.99 593.40 L1537.35 590.31 L1539.08 586.59 L1540.69 582.88 L1542.42 579.17 L1544.15 575.46 L1545.76 571.74 L1547.49 568.03 L1549.23 564.32 L1550.84 560.73 L1552.57 557.02 L1554.30 553.43 L1555.91 549.84 L1557.27 547.12 L1558.51 544.39 L1559.75 541.67 L1560.98 539.07 L1562.22 536.35 L1563.58 533.63 L1564.82 531.03 L1566.06 528.31 L1567.29 525.71 L1568.53 522.98 L1569.89 520.39 L1571.63 516.55 L1573.48 512.71 L1575.34 509.00 L1577.19 505.16 L1579.05 501.45 L1580.78 497.74 L1582.64 494.03 L1584.50 490.31 L1586.35 486.60 L1588.21 482.89 L1589.94 479.30 L1591.43 476.33 L1592.91 473.36 L1594.40 470.39 L1595.88 467.42 L1597.37 464.57 L1598.85 461.60 L1600.34 458.76 L1601.82 455.91 L1603.31 453.06 L1604.79 450.09 L1606.28 447.25 L1607.88 444.28 L1609.49 441.18 L1611.10 438.21 L1612.71 435.12 L1614.32 432.15 L1615.93 429.18 L1617.41 426.21 L1619.02 423.24 L1620.63 420.27 L1622.24 417.30 L1623.85 414.45 L1624.84 412.47 L1625.95 410.62 L1626.94 408.76 L1628.06 406.90 L1629.05 404.92 L1630.16 403.07 L1631.15 401.21 L1632.26 399.35 L1633.25 397.50 L1634.37 395.64 L1635.36 393.78 L1636.35 392.05 L1637.34 390.32 L1638.33 388.59 L1639.32 386.85 L1640.31 385.12 L1641.30 383.39 L1642.29 381.66 L1643.28 379.92 L1644.27 378.32 L1645.26 376.58 L1646.25 374.85 L1648.10 371.63 L1650.08 368.42 L1651.94 365.20 L1653.92 361.98 L1655.78 358.89 L1657.63 355.79 L1659.61 352.70 L1661.47 349.60 L1663.45 346.51 L1665.30 343.54 L1667.16 340.45 L1669.02 337.60 L1670.87 334.75 L1672.73 331.91 L1674.59 329.06 L1676.32 326.22 L1678.17 323.49 L1680.03 320.65 L1681.89 317.92 L1683.74 315.20 L1685.60 312.60 L1687.33 309.88 L1688.32 308.52 L1689.19 307.28 L1690.05 305.92 L1691.04 304.56 L1691.91 303.32 L1692.90 302.08 L1693.77 300.72 L1694.63 299.48 L1695.62 298.12 L1696.49 296.89 L1697.36 295.65 L1699.34 292.93 L1701.32 290.20 L1703.42 287.48 L1705.40 284.88 L1707.38 282.16 L1709.36 279.56 L1711.34 276.96 L1713.32 274.49 L1715.30 271.89 L1717.28 269.41 L1719.26 266.94 L1721.12 264.71 L1722.97 262.48 L1724.70 260.25 L1726.56 258.03 L1728.42 255.80 L1730.27 253.70 L1732.13 251.59 L1733.99 249.49 L1735.72 247.38 L1737.57 245.40 L1739.43 243.30 L1740.54 242.19 L1741.53 241.07 L1742.65 239.96 L1743.64 238.72 L1744.75 237.61 L1745.74 236.49 L1746.73 235.50 L1747.85 234.39 L1748.84 233.28 L1749.95 232.16 L1750.94 231.17 L1752.18 229.93 L1753.41 228.70 L1754.53 227.58 L1755.77 226.35 L1756.88 225.23 L1758.12 224.12 L1759.35 223.00 L1760.47 221.89 L1761.71 220.78 L1762.82 219.66 L1764.06 218.55 L1765.79 216.94 L1767.65 215.33 L1769.38 213.72 L1771.23 212.11 L1772.97 210.63 L1774.82 209.02 L1776.56 207.54 L1778.41 206.17 L1780.14 204.69 L1782.00 203.33 L1783.73 201.84 L1784.85 201.10 L1785.96 200.23 L1786.95 199.49 L1788.06 198.62 L1789.18 197.88 L1790.29 197.14 L1791.28 196.27 L1792.40 195.53 L1793.51 194.79 L1794.50 194.05 L1795.61 193.30 L1797.47 192.07 L1799.33 190.95 L1801.06 189.71 L1802.91 188.60 L1804.77 187.49 L1806.63 186.37 L1808.48 185.26 L1810.22 184.27 L1812.07 183.28 L1813.93 182.17 L1815.78 181.30 L1816.90 180.68 L1818.01 180.06 L1819.13 179.57 L1820.24 178.95 L1821.48 178.45 L1822.59 177.83 L1823.70 177.34 L1824.82 176.84 L1825.93 176.35 L1827.05 175.85 L1828.28 175.36 L1830.14 174.62 L1832.12 173.87 L1833.98 173.13 L1835.83 172.39 L1837.81 171.77 L1839.67 171.15 L1841.65 170.53 L1843.50 169.91 L1845.48 169.42 L1847.34 168.80 L1849.32 168.31 L1850.68 167.93 L1852.04 167.69 L1853.53 167.32 L1854.89 167.07 L1856.25 166.70 L1857.61 166.45 L1859.10 166.20 L1860.46 165.95 L1861.82 165.71 L1863.30 165.46 L1864.67 165.34 L1865.90 165.09 L1867.26 164.96 L1868.50 164.84 L1869.74 164.72 L1871.10 164.59 L1872.34 164.47 L1873.70 164.47 L1874.94 164.35 L1876.17 164.35 L1877.54 164.22 L1878.77 164.22 L1880.13 164.22 L1881.62 164.22 L1882.98 164.22 L1884.34 164.22 L1885.70 164.35 L1887.19 164.35 L1888.55 164.47 L1889.91 164.59 L1891.27 164.72 L1892.76 164.84 L1894.12 164.96 L1895.60 165.09 L1897.09 165.34 L1898.57 165.46 L1900.06 165.71 L1901.54 165.95 L1903.15 166.20 L1904.64 166.45 L1906.12 166.82 L1907.61 167.07 L1909.09 167.44 L1910.58 167.81 L1912.56 168.18 L1914.41 168.80 L1916.39 169.30 L1918.37 169.79 L1920.23 170.41 L1922.21 171.03 L1924.07 171.77 L1926.05 172.39 L1928.03 173.13 L1929.88 173.87 L1931.86 174.62 L1932.48 174.99 L1933.22 175.24 L1933.97 175.48 L1934.58 175.85 L1935.33 176.10 L1936.07 176.47 L1936.69 176.72 L1937.43 177.09 L1938.05 177.34 L1938.79 177.71 L1939.53 177.96 L1941.39 178.95 L1943.37 179.94 L1945.35 180.93 L1947.33 181.92 L1949.19 182.91 L1951.17 184.02 L1953.15 185.14 L1955.13 186.25 L1956.98 187.49 L1958.96 188.60 L1960.94 189.84 L1962.55 190.95 L1964.16 191.94 L1965.77 193.06 L1967.38 194.17 L1968.99 195.28 L1970.60 196.40 L1972.20 197.51 L1973.81 198.75 L1975.42 199.99 L1977.03 201.22 L1978.64 202.46 L1979.88 203.33 L1981.11 204.32 L1982.23 205.18 L1983.47 206.17 L1984.58 207.16 L1985.82 208.15 L1987.05 209.14 L1988.17 210.13 L1989.41 211.12 L1990.52 212.11 L1991.76 213.10 L1993.24 214.47 L1994.73 215.83 L1996.21 217.19 L1997.82 218.55 L1999.31 220.03 L2000.79 221.40 L2002.28 222.76 L2003.76 224.24 L2005.25 225.73 L2006.73 227.21 L2008.34 228.70 L2009.82 230.31 L2011.43 231.79 L2012.92 233.40 L2014.53 235.01 L2016.14 236.62 L2017.62 238.35 L2019.23 239.96 L2020.84 241.57 L2022.32 243.30 L2023.93 245.03 L2025.42 246.77 L2026.53 248.00 L2027.64 249.24 L2028.76 250.48 L2029.87 251.84 L2030.99 253.08 L2032.10 254.44 L2033.21 255.68 L2034.33 257.04 L2035.44 258.27 L2036.55 259.64 L2037.67 261.00 L2039.03 262.73 L2040.51 264.34 L2041.88 266.07 L2043.36 267.80 L2044.72 269.66 L2046.08 271.39 L2047.57 273.12 L2048.93 274.98 L2050.29 276.71 L2051.78 278.57 L2053.14 280.43 L2054.87 282.65 L2056.48 284.88 L2058.21 287.11 L2059.82 289.34 L2061.55 291.69 L2063.16 294.04 L2064.89 296.27 L2066.63 298.62 L2068.23 300.97 L2069.97 303.44 L2071.57 305.80 L2073.18 308.15 L2074.79 310.37 L2076.40 312.73 L2077.89 314.95 L2079.50 317.30 L2081.10 319.66 L2082.71 322.01 L2084.20 324.48 L2085.81 326.83 L2087.42 329.31 L2089.02 331.66 L2090.51 334.01 L2091.99 336.36 L2093.48 338.71 L2095.09 341.19 L2096.57 343.54 L2098.06 346.02 L2099.54 348.37 L2101.15 350.84 L2102.64 353.32 L2104.12 355.79 L2105.61 358.27 L2107.59 361.49 L2109.44 364.58 L2111.42 367.80 L2113.28 371.01 L2115.26 374.23 L2117.11 377.57 L2118.97 380.79 L2120.95 384.13 L2122.81 387.47 L2124.79 390.81 L2126.64 394.16 L2127.88 396.26 L2129.12 398.49 L2130.36 400.59 L2131.47 402.82 L2132.71 405.05 L2133.95 407.15 L2135.18 409.38 L2136.42 411.61 L2137.66 413.83 L2138.77 416.06 L2140.01 418.29 L2141.25 420.52 L2142.48 422.74 L2143.72 425.09 L2144.96 427.32 L2146.20 429.55 L2147.31 431.90 L2148.55 434.13 L2149.79 436.48 L2151.02 438.83 L2152.26 441.06 L2153.50 443.41 L2155.11 446.50 L2156.72 449.60 L2158.32 452.82 L2159.93 455.91 L2161.54 459.00 L2163.15 462.22 L2164.88 465.44 L2166.49 468.53 L2168.10 471.75 L2169.71 474.97 L2171.32 478.18 L2172.43 480.54 L2173.67 482.89 L2174.78 485.12 L2175.90 487.47 L2177.01 489.82 L2178.25 492.17 L2179.36 494.52 L2180.48 496.75 L2181.71 499.10 L2182.83 501.45 L2183.94 503.93 L2185.67 507.39 L2187.41 510.98 L2189.14 514.57 L2190.87 518.03 L2192.60 521.62 L2194.34 525.21 L2196.07 528.92 L2197.80 532.51 L2199.41 536.10 L2201.14 539.81 L2202.87 543.40 L2204.24 546.37 L2205.60 549.34 L2206.96 552.31 L2208.32 555.16 L2209.68 558.13 L2211.04 561.10 L2212.53 564.07 L2213.89 567.04 L2215.25 570.01 L2216.61 572.98 L2217.97 576.07 L2219.21 578.80 L2220.57 581.64 L2221.81 584.49 L2223.17 587.34 L2224.41 590.18 L2225.64 593.15 L2227.01 596.00 L2228.24 598.84 L2229.60 601.69 L2230.84 604.66 L2232.20 607.51 L2233.19 609.86 L2234.31 612.21 L2235.30 614.56 L2236.41 616.91 L2237.40 619.26 L2238.51 621.62 L2239.50 623.97 L2240.62 626.44 L2241.61 628.79 L2242.60 631.14 L2243.71 633.50 L2245.94 638.57 L2248.04 643.52 L2250.27 648.47 L2252.37 653.54 L2254.60 658.49 L2256.83 663.57 L2258.93 668.64 L2261.16 673.72 L2263.26 678.79 L2265.49 683.86 L2267.72 688.94 L2268.71 691.41 L2269.70 693.76 L2270.69 696.12 L2271.68 698.47 L2272.67 700.82 L2273.66 703.17 L2274.65 705.64 L2275.76 708.00 L2276.75 710.35 L2277.74 712.70 L2278.73 715.17 L2280.71 719.75 L2282.57 724.33 L2284.55 728.91 L2286.41 733.49 L2288.39 738.19 L2290.36 742.77 L2292.22 747.47 L2294.20 752.05 L2296.06 756.75 L2298.04 761.46 L2300.02 766.04 L2301.13 769.01 L2302.37 771.85 L2303.61 774.82 L2304.72 777.67 L2305.96 780.64 L2307.20 783.61 L2308.31 786.46 L2309.55 789.43 L2310.78 792.27 L2312.02 795.24 L2313.14 798.21 L2314.99 802.54 L2316.72 807.00 L2318.58 811.45 L2320.31 815.79 L2322.17 820.24 L2324.03 824.70 L2325.76 829.15 L2327.61 833.61 L2329.35 838.06 L2331.20 842.52 L2332.94 846.97 L2333.93 849.45 L2335.04 851.92 L2336.03 854.40 L2337.02 856.87 L2338.01 859.35 L2339.00 861.95 L2339.99 864.42 L2340.98 866.90 L2342.09 869.37 L2343.08 871.85 L2344.07 874.44 L2345.93 878.90 L2347.66 883.48 L2349.52 888.06 L2351.37 892.51 L2353.23 897.09 L2354.96 901.67 L2356.82 906.25 L2358.68 910.83 L2360.53 915.28 L2362.26 919.86 L2364.12 924.44 L2365.85 928.77 L2367.59 933.10 L2369.32 937.56 L2371.05 941.89 L2372.78 946.22 L2374.52 950.55 L2376.25 954.88 L2377.98 959.34 L2379.71 963.67 L2381.45 968.00 L2383.18 972.33 L2384.79 976.17 L2386.27 979.88 L2387.76 983.60 L2389.24 987.43 L2390.73 991.14 L2392.21 994.86 L2393.70 998.69 L2395.18 1002.41 L2396.67 1006.24 L2398.15 1009.96 L2399.76 1013.67 L2400.50 1015.65 L2401.25 1017.50 L2401.99 1019.36 L2402.73 1021.22 L2403.47 1023.07 L2404.22 1025.05 L2404.96 1026.91 L2405.70 1028.77 L2406.44 1030.62 L2407.19 1032.60 L2407.93 1034.46 L2409.78 1038.79 L2411.52 1043.25 L2413.25 1047.70 L2414.98 1052.03 L2416.71 1056.49 L2418.45 1060.82 L2420.30 1065.27 L2422.04 1069.60 L2423.77 1074.06 L2425.50 1078.39 L2427.23 1082.85 L2428.59 1086.31 L2430.08 1089.78 L2431.44 1093.24 L2432.80 1096.71 L2434.16 1100.17 L2435.65 1103.64 L2437.01 1107.10 L2438.37 1110.57 L2439.73 1114.03 L2441.09 1117.50 L2442.58 1120.84 L2443.69 1123.81 L2444.93 1126.78 L2446.04 1129.63 L2447.16 1132.60 L2448.39 1135.44 L2449.51 1138.41 L2450.75 1141.26 L2451.86 1144.10 L2453.10 1147.07 L2454.21 1149.92 L2455.45 1152.89 L2457.43 1157.84 L2459.41 1162.67 L2461.39 1167.62 L2463.37 1172.57 L2465.35 1177.39 L2467.33 1182.34 L2469.31 1187.29 L2471.29 1192.12 L2473.27 1197.07 L2475.25 1201.90 L2477.23 1206.85 L2479.33 1211.80 L2481.31 1216.62 L2483.29 1221.57 L2485.40 1226.52 L2487.38 1231.47 L2489.36 1236.30 L2491.46 1241.25 L2493.44 1246.08 L2495.42 1251.03 L2497.40 1255.85 L2499.50 1260.80 L2500.25 1262.66 L2500.99 1264.52 L2501.85 1266.37 L2502.60 1268.23 L2503.34 1270.09 L2504.08 1272.07 L2504.95 1273.92 L2505.69 1275.78 L2506.43 1277.63 L2507.30 1279.49 L2508.04 1281.35 L2509.77 1285.43 L2511.38 1289.52 L2513.11 1293.60 L2514.85 1297.56 L2516.46 1301.64 L2518.19 1305.73 L2519.92 1309.69 L2521.65 1313.77 L2523.26 1317.73 L2525.00 1321.82 L2526.73 1325.78 L2528.46 1330.11 L2530.32 1334.44 L2532.17 1338.65 L2534.03 1342.98 L2535.76 1347.31 L2537.62 1351.52 L2539.47 1355.85 L2541.33 1360.06 L2543.06 1364.26 L2544.92 1368.59 L2546.78 1372.80 L2547.64 1374.78 L2548.51 1376.76 L2549.37 1378.87 L2550.24 1380.85 L2551.11 1382.83 L2551.97 1384.93 L2552.84 1386.91 L2553.71 1388.89 L2554.70 1390.99 L2555.56 1392.97 L2556.43 1394.95 L2557.67 1397.92 L2559.03 1401.02 L2560.39 1403.99 L2561.63 1407.08 L2562.99 1410.05 L2564.35 1413.02 L2565.59 1415.99 L2566.95 1418.96 L2568.31 1422.06 L2569.55 1425.03 L2570.91 1428.00 L2573.01 1432.70 L2574.99 1437.28 L2577.09 1441.98 L2579.20 1446.56 L2581.30 1451.26 L2583.41 1455.84 L2585.39 1460.42 L2587.49 1465.12 L2589.59 1469.70 L2591.70 1474.28 L2593.68 1478.73 L2594.79 1481.09 L2595.90 1483.56 L2597.02 1485.91 L2598.01 1488.26 L2599.12 1490.62 L2600.24 1492.97 L2601.23 1495.32 L2602.34 1497.55 L2603.45 1499.90 L2604.57 1502.25 L2605.56 1504.60 L2606.79 1507.32 L2608.03 1509.92 L2609.39 1512.64 L2610.63 1515.37 L2611.87 1517.96 L2613.11 1520.69 L2614.34 1523.29 L2615.58 1526.01 L2616.82 1528.61 L2618.05 1531.33 L2619.29 1533.93 L2620.53 1536.53 L2621.64 1539.00 L2622.88 1541.48 L2624.12 1544.08 L2625.23 1546.55 L2626.47 1549.03 L2627.71 1551.63 L2628.82 1554.10 L2630.06 1556.58 L2631.30 1559.05 L2632.41 1561.53 L2636.37 1569.57 L2640.21 1577.49 L2644.04 1585.41 L2647.88 1593.21 L2651.72 1601.00 L2655.68 1608.80 L2659.51 1616.60 L2663.35 1624.15 L2667.18 1631.82 L2671.02 1639.37 L2674.98 1646.92 L2678.07 1652.86 L2681.17 1658.92 L2684.26 1664.86 L2687.36 1670.80 L2690.57 1676.62 L2693.67 1682.56 L2696.76 1688.37 L2699.85 1694.07 L2702.95 1699.88 L2706.04 1705.58 L2709.26 1711.27 L2710.50 1713.74 L2711.86 1716.09 L2713.22 1718.57 L2714.58 1721.05 L2715.94 1723.40 L2717.30 1725.87 L2718.66 1728.22 L2720.03 1730.70 L2721.26 1733.05 L2722.62 1735.40 L2723.99 1737.88 L2725.47 1740.47 L2727.08 1743.20 L2728.56 1745.80 L2730.05 1748.52 L2731.53 1751.12 L2733.14 1753.72 L2734.63 1756.31 L2736.11 1759.04 L2737.60 1761.64 L2739.21 1764.24 L2740.69 1766.83 L2741.43 1768.20 L2742.30 1769.56 L2743.04 1770.79 L2743.79 1772.16 L2744.65 1773.52 L2745.39 1774.88 L2746.26 1776.24 L2747.00 1777.60 L2747.87 1778.84 L2748.61 1780.20 L2749.35 1781.56 L2750.47 1783.42 L2751.58 1785.27 L2752.70 1787.13 L2753.81 1788.99 L2754.92 1790.72 L2756.04 1792.57 L2757.15 1794.43 L2758.26 1796.29 L2759.38 1798.02 L2760.49 1799.88 L2761.61 1801.61 L2763.83 1805.45 L2766.18 1809.28 L2768.54 1812.99 L2770.89 1816.83 L2773.24 1820.54 L2775.59 1824.26 L2777.94 1827.97 L2780.29 1831.68 L2782.64 1835.27 L2784.99 1838.98 L2787.35 1842.57 L2788.83 1844.92 L2790.44 1847.40 L2792.05 1849.87 L2793.66 1852.22 L2795.27 1854.70 L2796.87 1857.05 L2798.36 1859.40 L2799.97 1861.88 L2801.58 1864.23 L2803.19 1866.58 L2804.79 1868.93 L2807.02 1872.27 L2809.37 1875.74 L2811.72 1879.08 L2814.08 1882.42 L2816.30 1885.76 L2818.65 1889.10 L2821.01 1892.44 L2823.36 1895.66 L2825.58 1899.00 L2827.94 1902.22 L2830.29 1905.44 L2838.08 1916.20 L2846.00 1926.85 L2853.80 1937.12 L2861.72 1947.27 L2869.52 1957.29 L2877.44 1966.94 L2885.23 1976.47 L2893.15 1985.75 L2900.95 1994.91 L2908.74 2003.82 L2916.66 2012.49 L2917.78 2013.60 L2918.77 2014.84 L2919.88 2015.95 L2921.00 2017.19 L2922.11 2018.30 L2923.10 2019.54 L2924.21 2020.65 L2925.33 2021.77 L2926.44 2023.00 L2927.43 2024.12 L2928.54 2025.23 L2932.26 2029.07 L2935.97 2032.90 L2939.68 2036.74 L2943.27 2040.45 L2946.98 2044.17 L2950.70 2047.88 L2954.41 2051.47 L2958.12 2055.06 L2961.83 2058.65 L2965.55 2062.11 L2969.13 2065.58 L2974.21 2070.28 L2979.41 2074.86 L2984.48 2079.44 L2989.55 2083.89 L2994.63 2088.35 L2999.70 2092.55 L3004.77 2096.89 L3009.85 2100.97 L3014.92 2105.18 L3020.00 2109.14 L3025.07 2113.10 L3034.97 2120.65 L3044.75 2127.82 L3054.65 2134.75 L3064.42 2141.44 L3074.32 2148.00 L3084.10 2154.18 L3094.00 2160.25 L3103.77 2166.06 L3113.55 2171.63 L3123.45 2177.08 L3133.23 2182.28 L3140.16 2185.74 L3147.09 2189.21 L3154.02 2192.55 L3160.95 2195.76 L3167.75 2198.98 L3174.68 2202.08 L3181.61 2205.05 L3188.54 2207.89 L3195.47 2210.74 L3202.28 2213.46 L3209.21 2216.06 L3223.19 2221.26 L3237.05 2225.96 L3250.91 2230.54 L3264.90 2234.75 L3278.76 2238.71 L3292.74 2242.54 L3306.60 2246.01 L3320.58 2249.35 L3334.44 2252.44 L3348.43 2255.29 L3362.29 2258.01 L3401.64 2264.94 L3441.12 2270.64 L3480.47 2275.34 L3519.82 2279.05 L3559.30 2282.02 L3598.65 2284.37 L3638.13 2285.98 L3677.48 2287.22 L3716.83 2288.09 L3756.31 2288.70 L3795.66 2289.32" stroke-linejoin="round" style="fill:none;stroke:#000000;stroke-width:8.64"/>
	<circle cx="560.84" cy="2273.36" r="15.59" style="fill:none;stroke:#202020;stroke-width:8.64"/>
	<circle cx="670.11" cy="2242.54" r="15.59" style="fill:none;stroke:#202020;stroke-width:8.64"/>
	<circle cx="688.79" cy="2214.20" r="15.59" style="fill:none;stroke:#202020;stroke-width:8.64"/>
	<circle cx="723.07" cy="2187.47" r="15.59" style="fill:none;stroke:#202020;stroke-width:8.64"/>
	<circle cx="728.39" cy="2161.73" r="15.59" style="fill:none;stroke:#202020;stroke-width:8.64"/>
	<circle cx="738.17" cy="2136.98" r="15.59" style="fill:none;stroke:#202020;stroke-width:8.64"/>
	<circle cx="770.34" cy="2112.85" r="15.59" style="fill:none;stroke:#202020;stroke-width:8.64"/>
	<circle cx="796.33" cy="2089.46" r="15.59" style="fill:none;stroke:#202020;stroke-width:8.64"/>
	<circle cx="807.35" cy="2066.57" r="15.59" style="fill:none;stroke:#202020;stroke-width:8.64"/>
	<circle cx="836.67" cy="2044.17" r="15.59" style="fill:none;stroke:#202020;stroke-width:8.64"/>
	<circle cx="852.27" cy="2022.26" r="15.59" style="fill:none;stroke:#202020;stroke-width:8.64"/>
	<circle cx="859.94" cy="2000.85" r="15.59" style="fill:none;stroke:#202020;stroke-width:8.64"/>
	<circle cx="867.98" cy="1979.69" r="15.59" style="fill:none;stroke:#202020;stroke-width:8.64"/>
	<circle cx="878.13" cy="1959.02" r="15.59" style="fill:none;stroke:#202020;stroke-width:8.64"/>
	<circle cx="921.94" cy="1938.60" r="15.59" style="fill:none;stroke:#202020;stroke-width:8.64"/>
	<circle cx="935.06" cy="1918.56" r="15.59" style="fill:none;stroke:#202020;stroke-width:8.64"/>
	<circle cx="961.91" cy="1898.76" r="15.59" style="fill:none;stroke:#202020;stroke-width:8.64"/>
	<circle cx="973.17" cy="1879.33" r="15.59" style="fill:none;stroke:#202020;stroke-width:8.64"/>
	<circle cx="975.03" cy="1860.14" r="15.59" style="fill:none;stroke:#202020;stroke-width:8.64"/>
	<circle cx="979.98" cy="1841.21" r="15.59" style="fill:none;stroke:#202020;stroke-width:8.64"/>
	<circle cx="988.02" cy="1822.52" r="15.59" style="fill:none;stroke:#202020;stroke-width:8.64"/>
	<circle cx="1035.79" cy="1804.21" r="15.59" style="fill:none;stroke:#202020;stroke-width:8.64"/>
	<circle cx="1046.43" cy="1785.89" r="15.59" style="fill:none;stroke:#202020;stroke-width:8.64"/>
	<circle cx="1051.63" cy="1767.95" r="15.59" style="fill:none;stroke:#202020;stroke-width:8.64"/>
	<circle cx="1066.23" cy="1750.25" r="15.59" style="fill:none;stroke:#202020;stroke-width:8.64"/>
	<circle cx="1074.40" cy="1732.68" r="15.59" style="fill:none;stroke:#202020;stroke-width:8.64"/>
	<circle cx="1075.14" cy="1715.35" r="15.59" style="fill:none;stroke:#202020;stroke-width:8.64"/>
	<circle cx="1075.88" cy="1698.27" r="15.59" style="fill:none;stroke:#202020;stroke-width:8.64"/>
	<circle cx="1114.00" cy="1681.32" r="15.59" style="fill:none;stroke:#202020;stroke-width:8.64"/>
	<circle cx="1129.84" cy="1664.49" r="15.59" style="fill:none;stroke:#202020;stroke-width:8.64"/>
	<circle cx="1133.06" cy="1647.91" r="15.59" style="fill:none;stroke:#202020;stroke-width:8.64"/>
	<circle cx="1135.04" cy="1631.57" r="15.59" style="fill:none;stroke:#202020;stroke-width:8.64"/>
	<circle cx="1146.05" cy="1615.24" r="15.59" style="fill:none;stroke:#202020;stroke-width:8.64"/>
	<circle cx="1149.51" cy="1599.27" r="15.59" style="fill:none;stroke:#202020;stroke-width:8.64"/>
	<circle cx="1155.08" cy="1583.31" r="15.59" style="fill:none;stroke:#202020;stroke-width:8.64"/>
	<circle cx="1157.43" cy="1567.59" r="15.59" style="fill:none;stroke:#202020;stroke-width:8.64"/>
	<circle cx="1171.79" cy="1552.00" r="15.59" style="fill:none;stroke:#202020;stroke-width:8.64"/>
	<circle cx="1174.26" cy="1536.53" r="15.59" style="fill:none;stroke:#202020;stroke-width:8.64"/>
	<circle cx="1178.47" cy="1521.31" r="15.59" style="fill:none;stroke:#202020;stroke-width:8.64"/>
	<circle cx="1187.75" cy="1506.21" r="15.59" style="fill:none;stroke:#202020;stroke-width:8.64"/>
	<circle cx="1190.60" cy="1491.23" r="15.59" style="fill:none;stroke:#202020;stroke-width:8.64"/>
	<circle cx="1191.46" cy="1476.38" r="15.59" style="fill:none;stroke:#202020;stroke-width:8.64"/>
	<circle cx="1193.20" cy="1461.66" r="15.59" style="fill:none;stroke:#202020;stroke-width:8.64"/>
	<circle cx="1194.31" cy="1447.05" r="15.59" style="fill:none;stroke:#202020;stroke-width:8.64"/>
	<circle cx="1194.56" cy="1432.70" r="15.59" style="fill:none;stroke:#202020;stroke-width:8.64"/>
	<circle cx="1194.81" cy="1418.34" r="15.59" style="fill:none;stroke:#202020;stroke-width:8.64"/>
	<circle cx="1195.67" cy="1404.24" r="15.59" style="fill:none;stroke:#202020;stroke-width:8.64"/>
	<circle cx="1204.58" cy="1390.13" r="15.59" style="fill:none;stroke:#202020;stroke-width:8.64"/>
	<circle cx="1204.71" cy="1376.27" r="15.59" style="fill:none;stroke:#202020;stroke-width:8.64"/>
	<circle cx="1204.95" cy="1362.41" r="15.59" style="fill:none;stroke:#202020;stroke-width:8.64"/>
	<circle cx="1207.06" cy="1348.79" r="15.59" style="fill:none;stroke:#202020;stroke-width:8.64"/>
	<circle cx="1213.00" cy="1335.18" r="15.59" style="fill:none;stroke:#202020;stroke-width:8.64"/>
	<circle cx="1214.48" cy="1321.82" r="15.59" style="fill:none;stroke:#202020;stroke-width:8.64"/>
	<circle cx="1222.65" cy="1308.45" r="15.59" style="fill:none;stroke:#202020;stroke-width:8.64"/>
	<circle cx="1222.77" cy="1295.33" r="15.59" style="fill:none;stroke:#202020;stroke-width:8.64"/>
	<circle cx="1227.23" cy="1282.21" r="15.59" style="fill:none;stroke:#202020;stroke-width:8.64"/>
	<circle cx="1254.08" cy="1269.22" r="15.59" style="fill:none;stroke:#202020;stroke-width:8.64"/>
	<circle cx="1254.21" cy="1256.35" r="15.59" style="fill:none;stroke:#202020;stroke-width:8.64"/>
	<circle cx="1269.55" cy="1243.60" r="15.59" style="fill:none;stroke:#202020;stroke-width:8.64"/>
	<circle cx="1270.17" cy="1230.98" r="15.59" style="fill:none;stroke:#202020;stroke-width:8.64"/>
	<circle cx="1274.87" cy="1218.48" r="15.59" style="fill:none;stroke:#202020;stroke-width:8.64"/>
	<circle cx="1275.49" cy="1206.11" r="15.59" style="fill:none;stroke:#202020;stroke-width:8.64"/>
	<circle cx="1275.49" cy="1193.73" r="15.59" style="fill:none;stroke:#202020;stroke-width:8.64"/>
	<circle cx="1278.71" cy="1181.48" r="15.59" style="fill:none;stroke:#202020;stroke-width:8.64"/>
	<circle cx="1282.55" cy="1169.47" r="15.59" style="fill:none;stroke:#202020;stroke-width:8.64"/>
	<circle cx="1282.67" cy="1157.47" r="15.59" style="fill:none;stroke:#202020;stroke-width:8.64"/>
	<circle cx="1285.89" cy="1145.47" r="15.59" style="fill:none;stroke:#202020;stroke-width:8.64"/>
	<circle cx="1286.13" cy="1133.71" r="15.59" style="fill:none;stroke:#202020;stroke-width:8.64"/>
	<circle cx="1292.82" cy="1121.95" r="15.59" style="fill:none;stroke:#202020;stroke-width:8.64"/>
	<circle cx="1298.14" cy="1110.32" r="15.59" style="fill:none;stroke:#202020;stroke-width:8.64"/>
	<circle cx="1299.25" cy="1098.81" r="15.59" style="fill:none;stroke:#202020;stroke-width:8.64"/>
	<circle cx="1302.59" cy="1087.43" r="15.59" style="fill:none;stroke:#202020;stroke-width:8.64"/>
	<circle cx="1303.71" cy="1076.04" r="15.59" style="fill:none;stroke:#202020;stroke-width:8.64"/>
	<circle cx="1306.43" cy="1064.90" r="15.59" style="fill:none;stroke:#202020;stroke-width:8.64"/>
	<circle cx="1322.64" cy="1053.64" r="15.59" style="fill:none;stroke:#202020;stroke-width:8.64"/>
	<circle cx="1328.70" cy="1042.63" r="15.59" style="fill:none;stroke:#202020;stroke-width:8.64"/>
	<circle cx="1339.35" cy="1031.74" r="15.59" style="fill:none;stroke:#202020;stroke-width:8.64"/>
	<circle cx="1351.97" cy="1020.85" r="15.59" style="fill:none;stroke:#202020;stroke-width:8.64"/>
	<circle cx="1352.22" cy="1010.08" r="15.59" style="fill:none;stroke:#202020;stroke-width:8.64"/>
	<circle cx="1354.32" cy="999.31" r="15.59" style="fill:none;stroke:#202020;stroke-width:8.64"/>
	<circle cx="1356.55" cy="988.79" r="15.59" style="fill:none;stroke:#202020;stroke-width:8.64"/>
	<circle cx="1358.40" cy="978.27" r="15.59" style="fill:none;stroke:#202020;stroke-width:8.64"/>
	<circle cx="1360.14" cy="967.76" r="15.59" style="fill:none;stroke:#202020;stroke-width:8.64"/>
	<circle cx="1362.12" cy="957.48" r="15.59" style="fill:none;stroke:#202020;stroke-width:8.64"/>
	<circle cx="1363.35" cy="947.21" r="15.59" style="fill:none;stroke:#202020;stroke-width:8.64"/>
	<circle cx="1368.18" cy="937.06" r="15.59" style="fill:none;stroke:#202020;stroke-width:8.64"/>
	<circle cx="1372.64" cy="926.92" r="15.59" style="fill:none;stroke:#202020;stroke-width:8.64"/>
	<circle cx="1379.57" cy="916.89" r="15.59" style="fill:none;stroke:#202020;stroke-width:8.64"/>
	<circle cx="1383.15" cy="906.99" r="15.59" style="fill:none;stroke:#202020;stroke-width:8.64"/>
	<circle cx="1384.14" cy="897.09" r="15.59" style="fill:none;stroke:#202020;stroke-width:8.64"/>
	<circle cx="1395.41" cy="887.44" r="15.59" style="fill:none;stroke:#202020;stroke-width:8.64"/>
	<circle cx="1399.37" cy="877.66" r="15.59" style="fill:none;stroke:#202020;stroke-width:8.64"/>
	<circle cx="1402.71" cy="868.13" r="15.59" style="fill:none;stroke:#202020;stroke-width:8.64"/>
	<circle cx="1406.54" cy="858.60" r="15.59" style="fill:none;stroke:#202020;stroke-width:8.64"/>
	<circle cx="1406.79" cy="849.20" r="15.59" style="fill:none;stroke:#202020;stroke-width:8.64"/>
	<circle cx="1409.88" cy="839.79" r="15.59" style="fill:none;stroke:#202020;stroke-width:8.64"/>
	<circle cx="1410.38" cy="830.51" r="15.59" style="fill:none;stroke:#202020;stroke-width:8.64"/>
	<circle cx="1419.17" cy="821.23" r="15.59" style="fill:none;stroke:#202020;stroke-width:8.64"/>
	<circle cx="1421.76" cy="812.20" r="15.59" style="fill:none;stroke:#202020;stroke-width:8.64"/>
	<circle cx="1423.99" cy="803.16" r="15.59" style="fill:none;stroke:#202020;stroke-width:8.64"/>
	<circle cx="1426.10" cy="794.13" r="15.59" style="fill:none;stroke:#202020;stroke-width:8.64"/>
	<circle cx="1426.10" cy="785.22" r="15.59" style="fill:none;stroke:#202020;stroke-width:8.64"/>
	<circle cx="1426.96" cy="776.43" r="15.59" style="fill:none;stroke:#202020;stroke-width:8.64"/>
	<circle cx="1429.07" cy="767.65" r="15.59" style="fill:none;stroke:#202020;stroke-width:8.64"/>
	<circle cx="1434.51" cy="758.98" r="15.59" style="fill:none;stroke:#202020;stroke-width:8.64"/>
	<circle cx="1434.88" cy="750.44" r="15.59" style="fill:none;stroke:#202020;stroke-width:8.64"/>
	<circle cx="1436.00" cy="741.90" r="15.59" style="fill:none;stroke:#202020;stroke-width:8.64"/>
	<circle cx="1440.95" cy="733.37" r="15.59" style="fill:none;stroke:#202020;stroke-width:8.64"/>
	<circle cx="1452.58" cy="725.07" r="15.59" style="fill:none;stroke:#202020;stroke-width:8.64"/>
	<circle cx="1453.57" cy="716.78" r="15.59" style="fill:none;stroke:#202020;stroke-width:8.64"/>
	<circle cx="1455.80" cy="708.49" r="15.59" style="fill:none;stroke:#202020;stroke-width:8.64"/>
	<circle cx="1461.36" cy="700.32" r="15.59" style="fill:none;stroke:#202020;stroke-width:8.64"/>
	<circle cx="1463.10" cy="692.28" r="15.59" style="fill:none;stroke:#202020;stroke-width:8.64"/>
	<circle cx="1465.08" cy="684.24" r="15.59" style="fill:none;stroke:#202020;stroke-width:8.64"/>
	<circle cx="1470.89" cy="676.31" r="15.59" style="fill:none;stroke:#202020;stroke-width:8.64"/>
	<circle cx="1473.74" cy="668.39" r="15.59" style="fill:none;stroke:#202020;stroke-width:8.64"/>
	<circle cx="1477.33" cy="660.60" r="15.59" style="fill:none;stroke:#202020;stroke-width:8.64"/>
	<circle cx="1477.70" cy="652.80" r="15.59" style="fill:none;stroke:#202020;stroke-width:8.64"/>
	<circle cx="1479.31" cy="645.13" r="15.59" style="fill:none;stroke:#202020;stroke-width:8.64"/>
	<circle cx="1482.53" cy="637.58" r="15.59" style="fill:none;stroke:#202020;stroke-width:8.64"/>
	<circle cx="1485.50" cy="630.03" r="15.59" style="fill:none;stroke:#202020;stroke-width:8.64"/>
	<circle cx="1486.24" cy="622.61" r="15.59" style="fill:none;stroke:#202020;stroke-width:8.64"/>
	<circle cx="1486.36" cy="615.18" r="15.59" style="fill:none;stroke:#202020;stroke-width:8.64"/>
	<circle cx="1491.06" cy="607.88" r="15.59" style="fill:none;stroke:#202020;stroke-width:8.64"/>
	<circle cx="1492.55" cy="600.58" r="15.59" style="fill:none;stroke:#202020;stroke-width:8.64"/>
	<circle cx="1494.41" cy="593.40" r="15.59" style="fill:none;stroke:#202020;stroke-width:8.64"/>
	<circle cx="1502.70" cy="586.22" r="15.59" style="fill:none;stroke:#202020;stroke-width:8.64"/>
	<circle cx="1512.84" cy="579.17" r="15.59" style="fill:none;stroke:#202020;stroke-width:8.64"/>
	<circle cx="1513.71" cy="572.24" r="15.59" style="fill:none;stroke:#202020;stroke-width:8.64"/>
	<circle cx="1516.06" cy="565.31" r="15.59" style="fill:none;stroke:#202020;stroke-width:8.64"/>
	<circle cx="1517.67" cy="558.38" r="15.59" style="fill:none;stroke:#202020;stroke-width:8.64"/>
	<circle cx="1518.54" cy="551.69" r="15.59" style="fill:none;stroke:#202020;stroke-width:8.64"/>
	<circle cx="1519.28" cy="544.89" r="15.59" style="fill:none;stroke:#202020;stroke-width:8.64"/>
	<circle cx="1523.98" cy="538.21" r="15.59" style="fill:none;stroke:#202020;stroke-width:8.64"/>
	<circle cx="1529.06" cy="531.65" r="15.59" style="fill:none;stroke:#202020;stroke-width:8.64"/>
	<circle cx="1529.06" cy="525.09" r="15.59" style="fill:none;stroke:#202020;stroke-width:8.64"/>
	<circle cx="1530.66" cy="518.65" r="15.59" style="fill:none;stroke:#202020;stroke-width:8.64"/>
	<circle cx="1533.63" cy="512.22" r="15.59" style="fill:none;stroke:#202020;stroke-width:8.64"/>
	<circle cx="1541.06" cy="505.91" r="15.59" style="fill:none;stroke:#202020;stroke-width:8.64"/>
	<circle cx="1549.85" cy="499.59" r="15.59" style="fill:none;stroke:#202020;stroke-width:8.64"/>
	<circle cx="1552.69" cy="493.41" r="15.59" style="fill:none;stroke:#202020;stroke-width:8.64"/>
	<circle cx="1553.06" cy="487.22" r="15.59" style="fill:none;stroke:#202020;stroke-width:8.64"/>
	<circle cx="1558.88" cy="481.16" r="15.59" style="fill:none;stroke:#202020;stroke-width:8.64"/>
	<circle cx="1559.50" cy="475.09" r="15.59" style="fill:none;stroke:#202020;stroke-width:8.64"/>
	<circle cx="1562.22" cy="469.15" r="15.59" style="fill:none;stroke:#202020;stroke-width:8.64"/>
	<circle cx="1566.43" cy="463.21" r="15.59" style="fill:none;stroke:#202020;stroke-width:8.64"/>
	<circle cx="1568.16" cy="457.39" r="15.59" style="fill:none;stroke:#202020;stroke-width:8.64"/>
	<circle cx="1571.50" cy="451.70" r="15.59" style="fill:none;stroke:#202020;stroke-width:8.64"/>
	<circle cx="1573.73" cy="445.89" r="15.59" style="fill:none;stroke:#202020;stroke-width:8.64"/>
	<circle cx="1580.78" cy="440.32" r="15.59" style="fill:none;stroke:#202020;stroke-width:8.64"/>
	<circle cx="1585.73" cy="434.75" r="15.59" style="fill:none;stroke:#202020;stroke-width:8.64"/>
	<circle cx="1589.94" cy="429.18" r="15.59" style="fill:none;stroke:#202020;stroke-width:8.64"/>
	<circle cx="1593.41" cy="423.73" r="15.59" style="fill:none;stroke:#202020;stroke-width:8.64"/>
	<circle cx="1594.02" cy="418.29" r="15.59" style="fill:none;stroke:#202020;stroke-width:8.64"/>
	<circle cx="1597.98" cy="412.97" r="15.59" style="fill:none;stroke:#202020;stroke-width:8.64"/>
	<circle cx="1600.58" cy="407.65" r="15.59" style="fill:none;stroke:#202020;stroke-width:8.64"/>
	<circle cx="1603.92" cy="402.45" r="15.59" style="fill:none;stroke:#202020;stroke-width:8.64"/>
	<circle cx="1608.63" cy="397.25" r="15.59" style="fill:none;stroke:#202020;stroke-width:8.64"/>
	<circle cx="1609.12" cy="392.18" r="15.59" style="fill:none;stroke:#202020;stroke-width:8.64"/>
	<circle cx="1611.23" cy="387.10" r="15.59" style="fill:none;stroke:#202020;stroke-width:8.64"/>
	<circle cx="1618.16" cy="382.15" r="15.59" style="fill:none;stroke:#202020;stroke-width:8.64"/>
	<circle cx="1622.73" cy="377.20" r="15.59" style="fill:none;stroke:#202020;stroke-width:8.64"/>
	<circle cx="1624.96" cy="372.25" r="15.59" style="fill:none;stroke:#202020;stroke-width:8.64"/>
	<circle cx="1627.93" cy="367.55" r="15.59" style="fill:none;stroke:#202020;stroke-width:8.64"/>
	<circle cx="1629.66" cy="362.72" r="15.59" style="fill:none;stroke:#202020;stroke-width:8.64"/>
	<circle cx="1630.04" cy="358.02" r="15.59" style="fill:none;stroke:#202020;stroke-width:8.64"/>
	<circle cx="1640.68" cy="353.44" r="15.59" style="fill:none;stroke:#202020;stroke-width:8.64"/>
	<circle cx="1642.29" cy="348.86" r="15.59" style="fill:none;stroke:#202020;stroke-width:8.64"/>
	<circle cx="1644.51" cy="344.28" r="15.59" style="fill:none;stroke:#202020;stroke-width:8.64"/>
	<circle cx="1644.51" cy="339.83" r="15.59" style="fill:none;stroke:#202020;stroke-width:8.64"/>
	<circle cx="1646.00" cy="335.50" r="15.59" style="fill:none;stroke:#202020;stroke-width:8.64"/>
	<circle cx="1646.49" cy="331.17" r="15.59" style="fill:none;stroke:#202020;stroke-width:8.64"/>
	<circle cx="1649.46" cy="326.83" r="15.59" style="fill:none;stroke:#202020;stroke-width:8.64"/>
	<circle cx="1649.59" cy="322.63" r="15.59" style="fill:none;stroke:#202020;stroke-width:8.64"/>
	<circle cx="1662.71" cy="318.42" r="15.59" style="fill:none;stroke:#202020;stroke-width:8.64"/>
	<circle cx="1664.31" cy="314.33" r="15.59" style="fill:none;stroke:#202020;stroke-width:8.64"/>
	<circle cx="1666.29" cy="310.25" r="15.59" style="fill:none;stroke:#202020;stroke-width:8.64"/>
	<circle cx="1666.42" cy="306.29" r="15.59" style="fill:none;stroke:#202020;stroke-width:8.64"/>
	<circle cx="1668.03" cy="302.33" r="15.59" style="fill:none;stroke:#202020;stroke-width:8.64"/>
	<circle cx="1670.50" cy="298.49" r="15.59" style="fill:none;stroke:#202020;stroke-width:8.64"/>
	<circle cx="1672.61" cy="294.66" r="15.59" style="fill:none;stroke:#202020;stroke-width:8.64"/>
	<circle cx="1673.72" cy="290.95" r="15.59" style="fill:none;stroke:#202020;stroke-width:8.64"/>
	<circle cx="1679.78" cy="287.23" r="15.59" style="fill:none;stroke:#202020;stroke-width:8.64"/>
	<circle cx="1681.27" cy="283.52" r="15.59" style="fill:none;stroke:#202020;stroke-width:8.64"/>
	<circle cx="1687.33" cy="279.93" r="15.59" style="fill:none;stroke:#202020;stroke-width:8.64"/>
	<circle cx="1687.58" cy="276.47" r="15.59" style="fill:none;stroke:#202020;stroke-width:8.64"/>
	<circle cx="1688.57" cy="272.88" r="15.59" style="fill:none;stroke:#202020;stroke-width:8.64"/>
	<circle cx="1693.15" cy="269.54" r="15.59" style="fill:none;stroke:#202020;stroke-width:8.64"/>
	<circle cx="1697.36" cy="266.19" r="15.59" style="fill:none;stroke:#202020;stroke-width:8.64"/>
	<circle cx="1701.32" cy="262.85" r="15.59" style="fill:none;stroke:#202020;stroke-width:8.64"/>
	<circle cx="1711.22" cy="259.51" r="15.59" style="fill:none;stroke:#202020;stroke-width:8.64"/>
	<circle cx="1712.95" cy="256.42" r="15.59" style="fill:none;stroke:#202020;stroke-width:8.64"/>
	<circle cx="1716.54" cy="253.20" r="15.59" style="fill:none;stroke:#202020;stroke-width:8.64"/>
	<circle cx="1718.39" cy="250.11" r="15.59" style="fill:none;stroke:#202020;stroke-width:8.64"/>
	<circle cx="1720.13" cy="247.14" r="15.59" style="fill:none;stroke:#202020;stroke-width:8.64"/>
	<circle cx="1720.37" cy="244.17" r="15.59" style="fill:none;stroke:#202020;stroke-width:8.64"/>
	<circle cx="1720.62" cy="241.20" r="15.59" style="fill:none;stroke:#202020;stroke-width:8.64"/>
	<circle cx="1721.12" cy="238.35" r="15.59" style="fill:none;stroke:#202020;stroke-width:8.64"/>
	<circle cx="1730.15" cy="235.50" r="15.59" style="fill:none;stroke:#202020;stroke-width:8.64"/>
	<circle cx="1735.35" cy="232.78" r="15.59" style="fill:none;stroke:#202020;stroke-width:8.64"/>
	<circle cx="1739.43" cy="230.06" r="15.59" style="fill:none;stroke:#202020;stroke-width:8.64"/>
	<circle cx="1740.05" cy="227.46" r="15.59" style="fill:none;stroke:#202020;stroke-width:8.64"/>
	<circle cx="1740.54" cy="224.86" r="15.59" style="fill:none;stroke:#202020;stroke-width:8.64"/>
	<circle cx="1743.02" cy="222.26" r="15.59" style="fill:none;stroke:#202020;stroke-width:8.64"/>
	<circle cx="1743.51" cy="219.79" r="15.59" style="fill:none;stroke:#202020;stroke-width:8.64"/>
	<circle cx="1743.76" cy="217.31" r="15.59" style="fill:none;stroke:#202020;stroke-width:8.64"/>
	<circle cx="1750.94" cy="214.96" r="15.59" style="fill:none;stroke:#202020;stroke-width:8.64"/>
	<circle cx="1752.92" cy="212.73" r="15.59" style="fill:none;stroke:#202020;stroke-width:8.64"/>
	<circle cx="1754.65" cy="210.38" r="15.59" style="fill:none;stroke:#202020;stroke-width:8.64"/>
	<circle cx="1757.37" cy="208.15" r="15.59" style="fill:none;stroke:#202020;stroke-width:8.64"/>
	<circle cx="1759.60" cy="206.05" r="15.59" style="fill:none;stroke:#202020;stroke-width:8.64"/>
	<circle cx="1763.69" cy="203.95" r="15.59" style="fill:none;stroke:#202020;stroke-width:8.64"/>
	<circle cx="1764.43" cy="201.97" r="15.59" style="fill:none;stroke:#202020;stroke-width:8.64"/>
	<circle cx="1766.66" cy="199.99" r="15.59" style="fill:none;stroke:#202020;stroke-width:8.64"/>
	<circle cx="1774.82" cy="198.01" r="15.59" style="fill:none;stroke:#202020;stroke-width:8.64"/>
	<circle cx="1782.00" cy="196.15" r="15.59" style="fill:none;stroke:#202020;stroke-width:8.64"/>
	<circle cx="1785.59" cy="194.29" r="15.59" style="fill:none;stroke:#202020;stroke-width:8.64"/>
	<circle cx="1787.20" cy="192.56" r="15.59" style="fill:none;stroke:#202020;stroke-width:8.64"/>
	<circle cx="1791.03" cy="190.83" r="15.59" style="fill:none;stroke:#202020;stroke-width:8.64"/>
	<circle cx="1793.26" cy="189.10" r="15.59" style="fill:none;stroke:#202020;stroke-width:8.64"/>
	<circle cx="1794.13" cy="187.49" r="15.59" style="fill:none;stroke:#202020;stroke-width:8.64"/>
	<circle cx="1797.10" cy="186.00" r="15.59" style="fill:none;stroke:#202020;stroke-width:8.64"/>
	<circle cx="1802.67" cy="184.52" r="15.59" style="fill:none;stroke:#202020;stroke-width:8.64"/>
	<circle cx="1804.40" cy="183.03" r="15.59" style="fill:none;stroke:#202020;stroke-width:8.64"/>
	<circle cx="1807.00" cy="181.67" r="15.59" style="fill:none;stroke:#202020;stroke-width:8.64"/>
	<circle cx="1809.23" cy="180.31" r="15.59" style="fill:none;stroke:#202020;stroke-width:8.64"/>
	<circle cx="1814.79" cy="178.95" r="15.59" style="fill:none;stroke:#202020;stroke-width:8.64"/>
	<circle cx="1816.65" cy="177.71" r="15.59" style="fill:none;stroke:#202020;stroke-width:8.64"/>
	<circle cx="1819.74" cy="176.60" r="15.59" style="fill:none;stroke:#202020;stroke-width:8.64"/>
	<circle cx="1819.99" cy="175.48" r="15.59" style="fill:none;stroke:#202020;stroke-width:8.64"/>
	<circle cx="1824.45" cy="174.37" r="15.59" style="fill:none;stroke:#202020;stroke-width:8.64"/>
	<circle cx="1825.81" cy="173.38" r="15.59" style="fill:none;stroke:#202020;stroke-width:8.64"/>
	<circle cx="1828.28" cy="172.39" r="15.59" style="fill:none;stroke:#202020;stroke-width:8.64"/>
	<circle cx="1832.49" cy="171.52" r="15.59" style="fill:none;stroke:#202020;stroke-width:8.64"/>
	<circle cx="1836.82" cy="170.66" r="15.59" style="fill:none;stroke:#202020;stroke-width:8.64"/>
	<circle cx="1844.62" cy="169.79" r="15.59" style="fill:none;stroke:#202020;stroke-width:8.64"/>
	<circle cx="1854.02" cy="169.05" r="15.59" style="fill:none;stroke:#202020;stroke-width:8.64"/>
	<circle cx="1855.01" cy="168.43" r="15.59" style="fill:none;stroke:#202020;stroke-width:8.64"/>
	<circle cx="1862.69" cy="167.81" r="15.59" style="fill:none;stroke:#202020;stroke-width:8.64"/>
	<circle cx="1863.92" cy="167.19" r="15.59" style="fill:none;stroke:#202020;stroke-width:8.64"/>
	<circle cx="1864.67" cy="166.57" r="15.59" style="fill:none;stroke:#202020;stroke-width:8.64"/>
	<circle cx="1865.28" cy="166.20" r="15.59" style="fill:none;stroke:#202020;stroke-width:8.64"/>
	<circle cx="1869.49" cy="165.71" r="15.59" style="fill:none;stroke:#202020;stroke-width:8.64"/>
	<circle cx="1869.62" cy="165.34" r="15.59" style="fill:none;stroke:#202020;stroke-width:8.64"/>
	<circle cx="1875.80" cy="165.09" r="15.59" style="fill:none;stroke:#202020;stroke-width:8.64"/>
	<circle cx="1878.77" cy="164.72" r="15.59" style="fill:none;stroke:#202020;stroke-width:8.64"/>
	<circle cx="1882.86" cy="164.59" r="15.59" style="fill:none;stroke:#202020;stroke-width:8.64"/>
	<circle cx="1888.30" cy="164.35" r="15.59" style="fill:none;stroke:#202020;stroke-width:8.64"/>
	<circle cx="1889.79" cy="164.22" r="15.59" style="fill:none;stroke:#202020;stroke-width:8.64"/>
	<circle cx="1892.63" cy="164.22" r="15.59" style="fill:none;stroke:#202020;stroke-width:8.64"/>
	<circle cx="1893.00" cy="164.22" r="15.59" style="fill:none;stroke:#202020;stroke-width:8.64"/>
	<circle cx="1895.23" cy="164.22" r="15.59" style="fill:none;stroke:#202020;stroke-width:8.64"/>
	<circle cx="1897.46" cy="164.35" r="15.59" style="fill:none;stroke:#202020;stroke-width:8.64"/>
	<circle cx="1900.80" cy="164.59" r="15.59" style="fill:none;stroke:#202020;stroke-width:8.64"/>
	<circle cx="1902.53" cy="164.72" r="15.59" style="fill:none;stroke:#202020;stroke-width:8.64"/>
	<circle cx="1906.12" cy="165.09" r="15.59" style="fill:none;stroke:#202020;stroke-width:8.64"/>
	<circle cx="1906.86" cy="165.34" r="15.59" style="fill:none;stroke:#202020;stroke-width:8.64"/>
	<circle cx="1908.97" cy="165.71" r="15.59" style="fill:none;stroke:#202020;stroke-width:8.64"/>
	<circle cx="1909.09" cy="166.20" r="15.59" style="fill:none;stroke:#202020;stroke-width:8.64"/>
	<circle cx="1910.58" cy="166.57" r="15.59" style="fill:none;stroke:#202020;stroke-width:8.64"/>
	<circle cx="1911.20" cy="167.19" r="15.59" style="fill:none;stroke:#202020;stroke-width:8.64"/>
	<circle cx="1915.77" cy="167.81" r="15.59" style="fill:none;stroke:#202020;stroke-width:8.64"/>
	<circle cx="1917.38" cy="168.43" r="15.59" style="fill:none;stroke:#202020;stroke-width:8.64"/>
	<circle cx="1918.50" cy="169.05" r="15.59" style="fill:none;stroke:#202020;stroke-width:8.64"/>
	<circle cx="1923.20" cy="169.79" r="15.59" style="fill:none;stroke:#202020;stroke-width:8.64"/>
	<circle cx="1929.02" cy="170.66" r="15.59" style="fill:none;stroke:#202020;stroke-width:8.64"/>
	<circle cx="1931.86" cy="171.52" r="15.59" style="fill:none;stroke:#202020;stroke-width:8.64"/>
	<circle cx="1933.72" cy="172.39" r="15.59" style="fill:none;stroke:#202020;stroke-width:8.64"/>
	<circle cx="1934.21" cy="173.38" r="15.59" style="fill:none;stroke:#202020;stroke-width:8.64"/>
	<circle cx="1936.07" cy="174.37" r="15.59" style="fill:none;stroke:#202020;stroke-width:8.64"/>
	<circle cx="1936.44" cy="175.48" r="15.59" style="fill:none;stroke:#202020;stroke-width:8.64"/>
	<circle cx="1937.68" cy="176.60" r="15.59" style="fill:none;stroke:#202020;stroke-width:8.64"/>
	<circle cx="1939.41" cy="177.71" r="15.59" style="fill:none;stroke:#202020;stroke-width:8.64"/>
	<circle cx="1939.53" cy="178.95" r="15.59" style="fill:none;stroke:#202020;stroke-width:8.64"/>
	<circle cx="1940.52" cy="180.31" r="15.59" style="fill:none;stroke:#202020;stroke-width:8.64"/>
	<circle cx="1942.13" cy="181.67" r="15.59" style="fill:none;stroke:#202020;stroke-width:8.64"/>
	<circle cx="1944.98" cy="183.03" r="15.59" style="fill:none;stroke:#202020;stroke-width:8.64"/>
	<circle cx="1948.07" cy="184.52" r="15.59" style="fill:none;stroke:#202020;stroke-width:8.64"/>
	<circle cx="1952.16" cy="186.00" r="15.59" style="fill:none;stroke:#202020;stroke-width:8.64"/>
	<circle cx="1952.53" cy="187.49" r="15.59" style="fill:none;stroke:#202020;stroke-width:8.64"/>
	<circle cx="1956.36" cy="189.10" r="15.59" style="fill:none;stroke:#202020;stroke-width:8.64"/>
	<circle cx="1960.32" cy="190.83" r="15.59" style="fill:none;stroke:#202020;stroke-width:8.64"/>
	<circle cx="1961.56" cy="192.56" r="15.59" style="fill:none;stroke:#202020;stroke-width:8.64"/>
	<circle cx="1961.81" cy="194.29" r="15.59" style="fill:none;stroke:#202020;stroke-width:8.64"/>
	<circle cx="1962.06" cy="196.15" r="15.59" style="fill:none;stroke:#202020;stroke-width:8.64"/>
	<circle cx="1963.54" cy="198.01" r="15.59" style="fill:none;stroke:#202020;stroke-width:8.64"/>
	<circle cx="1970.60" cy="199.99" r="15.59" style="fill:none;stroke:#202020;stroke-width:8.64"/>
	<circle cx="1978.39" cy="201.97" r="15.59" style="fill:none;stroke:#202020;stroke-width:8.64"/>
	<circle cx="1979.01" cy="203.95" r="15.59" style="fill:none;stroke:#202020;stroke-width:8.64"/>
	<circle cx="1983.22" cy="206.05" r="15.59" style="fill:none;stroke:#202020;stroke-width:8.64"/>
	<circle cx="1985.07" cy="208.15" r="15.59" style="fill:none;stroke:#202020;stroke-width:8.64"/>
	<circle cx="1989.78" cy="210.38" r="15.59" style="fill:none;stroke:#202020;stroke-width:8.64"/>
	<circle cx="1990.02" cy="212.73" r="15.59" style="fill:none;stroke:#202020;stroke-width:8.64"/>
	<circle cx="1993.49" cy="214.96" r="15.59" style="fill:none;stroke:#202020;stroke-width:8.64"/>
	<circle cx="1994.11" cy="217.31" r="15.59" style="fill:none;stroke:#202020;stroke-width:8.64"/>
	<circle cx="1996.21" cy="219.79" r="15.59" style="fill:none;stroke:#202020;stroke-width:8.64"/>
	<circle cx="2000.54" cy="222.26" r="15.59" style="fill:none;stroke:#202020;stroke-width:8.64"/>
	<circle cx="2003.39" cy="224.86" r="15.59" style="fill:none;stroke:#202020;stroke-width:8.64"/>
	<circle cx="2013.29" cy="227.46" r="15.59" style="fill:none;stroke:#202020;stroke-width:8.64"/>
	<circle cx="2016.51" cy="230.06" r="15.59" style="fill:none;stroke:#202020;stroke-width:8.64"/>
	<circle cx="2017.50" cy="232.78" r="15.59" style="fill:none;stroke:#202020;stroke-width:8.64"/>
	<circle cx="2025.42" cy="235.50" r="15.59" style="fill:none;stroke:#202020;stroke-width:8.64"/>
	<circle cx="2030.86" cy="238.35" r="15.59" style="fill:none;stroke:#202020;stroke-width:8.64"/>
	<circle cx="2033.96" cy="241.20" r="15.59" style="fill:none;stroke:#202020;stroke-width:8.64"/>
	<circle cx="2037.67" cy="244.17" r="15.59" style="fill:none;stroke:#202020;stroke-width:8.64"/>
	<circle cx="2042.74" cy="247.14" r="15.59" style="fill:none;stroke:#202020;stroke-width:8.64"/>
	<circle cx="2051.28" cy="250.11" r="15.59" style="fill:none;stroke:#202020;stroke-width:8.64"/>
	<circle cx="2051.53" cy="253.20" r="15.59" style="fill:none;stroke:#202020;stroke-width:8.64"/>
	<circle cx="2054.75" cy="256.42" r="15.59" style="fill:none;stroke:#202020;stroke-width:8.64"/>
	<circle cx="2054.75" cy="259.51" r="15.59" style="fill:none;stroke:#202020;stroke-width:8.64"/>
	<circle cx="2065.76" cy="262.85" r="15.59" style="fill:none;stroke:#202020;stroke-width:8.64"/>
	<circle cx="2067.12" cy="266.19" r="15.59" style="fill:none;stroke:#202020;stroke-width:8.64"/>
	<circle cx="2071.57" cy="269.54" r="15.59" style="fill:none;stroke:#202020;stroke-width:8.64"/>
	<circle cx="2074.92" cy="272.88" r="15.59" style="fill:none;stroke:#202020;stroke-width:8.64"/>
	<circle cx="2078.51" cy="276.47" r="15.59" style="fill:none;stroke:#202020;stroke-width:8.64"/>
	<circle cx="2081.35" cy="279.93" r="15.59" style="fill:none;stroke:#202020;stroke-width:8.64"/>
	<circle cx="2086.92" cy="283.52" r="15.59" style="fill:none;stroke:#202020;stroke-width:8.64"/>
	<circle cx="2091.00" cy="287.23" r="15.59" style="fill:none;stroke:#202020;stroke-width:8.64"/>
	<circle cx="2091.50" cy="290.95" r="15.59" style="fill:none;stroke:#202020;stroke-width:8.64"/>
	<circle cx="2097.81" cy="294.66" r="15.59" style="fill:none;stroke:#202020;stroke-width:8.64"/>
	<circle cx="2105.61" cy="298.49" r="15.59" style="fill:none;stroke:#202020;stroke-width:8.64"/>
	<circle cx="2111.42" cy="302.33" r="15.59" style="fill:none;stroke:#202020;stroke-width:8.64"/>
	<circle cx="2120.70" cy="306.29" r="15.59" style="fill:none;stroke:#202020;stroke-width:8.64"/>
	<circle cx="2120.83" cy="310.25" r="15.59" style="fill:none;stroke:#202020;stroke-width:8.64"/>
	<circle cx="2125.78" cy="314.33" r="15.59" style="fill:none;stroke:#202020;stroke-width:8.64"/>
	<circle cx="2127.63" cy="318.42" r="15.59" style="fill:none;stroke:#202020;stroke-width:8.64"/>
	<circle cx="2128.75" cy="322.63" r="15.59" style="fill:none;stroke:#202020;stroke-width:8.64"/>
	<circle cx="2129.00" cy="326.83" r="15.59" style="fill:none;stroke:#202020;stroke-width:8.64"/>
	<circle cx="2130.23" cy="331.17" r="15.59" style="fill:none;stroke:#202020;stroke-width:8.64"/>
	<circle cx="2134.56" cy="335.50" r="15.59" style="fill:none;stroke:#202020;stroke-width:8.64"/>
	<circle cx="2134.69" cy="339.83" r="15.59" style="fill:none;stroke:#202020;stroke-width:8.64"/>
	<circle cx="2138.03" cy="344.28" r="15.59" style="fill:none;stroke:#202020;stroke-width:8.64"/>
	<circle cx="2142.11" cy="348.86" r="15.59" style="fill:none;stroke:#202020;stroke-width:8.64"/>
	<circle cx="2142.11" cy="353.44" r="15.59" style="fill:none;stroke:#202020;stroke-width:8.64"/>
	<circle cx="2142.73" cy="358.02" r="15.59" style="fill:none;stroke:#202020;stroke-width:8.64"/>
	<circle cx="2144.96" cy="362.72" r="15.59" style="fill:none;stroke:#202020;stroke-width:8.64"/>
	<circle cx="2146.69" cy="367.55" r="15.59" style="fill:none;stroke:#202020;stroke-width:8.64"/>
	<circle cx="2148.80" cy="372.25" r="15.59" style="fill:none;stroke:#202020;stroke-width:8.64"/>
	<circle cx="2152.01" cy="377.20" r="15.59" style="fill:none;stroke:#202020;stroke-width:8.64"/>
	<circle cx="2153.25" cy="382.15" r="15.59" style="fill:none;stroke:#202020;stroke-width:8.64"/>
	<circle cx="2153.37" cy="387.10" r="15.59" style="fill:none;stroke:#202020;stroke-width:8.64"/>
	<circle cx="2153.62" cy="392.18" r="15.59" style="fill:none;stroke:#202020;stroke-width:8.64"/>
	<circle cx="2156.10" cy="397.25" r="15.59" style="fill:none;stroke:#202020;stroke-width:8.64"/>
	<circle cx="2158.57" cy="402.45" r="15.59" style="fill:none;stroke:#202020;stroke-width:8.64"/>
	<circle cx="2159.07" cy="407.65" r="15.59" style="fill:none;stroke:#202020;stroke-width:8.64"/>
	<circle cx="2160.43" cy="412.97" r="15.59" style="fill:none;stroke:#202020;stroke-width:8.64"/>
	<circle cx="2163.03" cy="418.29" r="15.59" style="fill:none;stroke:#202020;stroke-width:8.64"/>
	<circle cx="2166.49" cy="423.73" r="15.59" style="fill:none;stroke:#202020;stroke-width:8.64"/>
	<circle cx="2171.32" cy="429.18" r="15.59" style="fill:none;stroke:#202020;stroke-width:8.64"/>
	<circle cx="2175.15" cy="434.75" r="15.59" style="fill:none;stroke:#202020;stroke-width:8.64"/>
	<circle cx="2176.52" cy="440.32" r="15.59" style="fill:none;stroke:#202020;stroke-width:8.64"/>
	<circle cx="2179.11" cy="445.89" r="15.59" style="fill:none;stroke:#202020;stroke-width:8.64"/>
	<circle cx="2180.48" cy="451.70" r="15.59" style="fill:none;stroke:#202020;stroke-width:8.64"/>
	<circle cx="2180.60" cy="457.39" r="15.59" style="fill:none;stroke:#202020;stroke-width:8.64"/>
	<circle cx="2182.21" cy="463.21" r="15.59" style="fill:none;stroke:#202020;stroke-width:8.64"/>
	<circle cx="2183.20" cy="469.15" r="15.59" style="fill:none;stroke:#202020;stroke-width:8.64"/>
	<circle cx="2184.81" cy="475.09" r="15.59" style="fill:none;stroke:#202020;stroke-width:8.64"/>
	<circle cx="2188.27" cy="481.16" r="15.59" style="fill:none;stroke:#202020;stroke-width:8.64"/>
	<circle cx="2189.39" cy="487.22" r="15.59" style="fill:none;stroke:#202020;stroke-width:8.64"/>
	<circle cx="2190.25" cy="493.41" r="15.59" style="fill:none;stroke:#202020;stroke-width:8.64"/>
	<circle cx="2192.60" cy="499.59" r="15.59" style="fill:none;stroke:#202020;stroke-width:8.64"/>
	<circle cx="2199.90" cy="505.91" r="15.59" style="fill:none;stroke:#202020;stroke-width:8.64"/>
	<circle cx="2200.89" cy="512.22" r="15.59" style="fill:none;stroke:#202020;stroke-width:8.64"/>
	<circle cx="2202.87" cy="518.65" r="15.59" style="fill:none;stroke:#202020;stroke-width:8.64"/>
	<circle cx="2203.74" cy="525.09" r="15.59" style="fill:none;stroke:#202020;stroke-width:8.64"/>
	<circle cx="2207.21" cy="531.65" r="15.59" style="fill:none;stroke:#202020;stroke-width:8.64"/>
	<circle cx="2210.79" cy="538.21" r="15.59" style="fill:none;stroke:#202020;stroke-width:8.64"/>
	<circle cx="2211.66" cy="544.89" r="15.59" style="fill:none;stroke:#202020;stroke-width:8.64"/>
	<circle cx="2224.16" cy="551.69" r="15.59" style="fill:none;stroke:#202020;stroke-width:8.64"/>
	<circle cx="2225.52" cy="558.38" r="15.59" style="fill:none;stroke:#202020;stroke-width:8.64"/>
	<circle cx="2229.48" cy="565.31" r="15.59" style="fill:none;stroke:#202020;stroke-width:8.64"/>
	<circle cx="2232.20" cy="572.24" r="15.59" style="fill:none;stroke:#202020;stroke-width:8.64"/>
	<circle cx="2232.70" cy="579.17" r="15.59" style="fill:none;stroke:#202020;stroke-width:8.64"/>
	<circle cx="2243.71" cy="586.22" r="15.59" style="fill:none;stroke:#202020;stroke-width:8.64"/>
	<circle cx="2260.54" cy="593.40" r="15.59" style="fill:none;stroke:#202020;stroke-width:8.64"/>
	<circle cx="2262.65" cy="600.58" r="15.59" style="fill:none;stroke:#202020;stroke-width:8.64"/>
	<circle cx="2264.75" cy="607.88" r="15.59" style="fill:none;stroke:#202020;stroke-width:8.64"/>
	<circle cx="2270.57" cy="615.18" r="15.59" style="fill:none;stroke:#202020;stroke-width:8.64"/>
	<circle cx="2273.41" cy="622.61" r="15.59" style="fill:none;stroke:#202020;stroke-width:8.64"/>
	<circle cx="2274.40" cy="630.03" r="15.59" style="fill:none;stroke:#202020;stroke-width:8.64"/>
	<circle cx="2277.25" cy="637.58" r="15.59" style="fill:none;stroke:#202020;stroke-width:8.64"/>
	<circle cx="2277.99" cy="645.13" r="15.59" style="fill:none;stroke:#202020;stroke-width:8.64"/>
	<circle cx="2278.73" cy="652.80" r="15.59" style="fill:none;stroke:#202020;stroke-width:8.64"/>
	<circle cx="2283.19" cy="660.60" r="15.59" style="fill:none;stroke:#202020;stroke-width:8.64"/>
	<circle cx="2290.49" cy="668.39" r="15.59" style="fill:none;stroke:#202020;stroke-width:8.64"/>
	<circle cx="2294.08" cy="676.31" r="15.59" style="fill:none;stroke:#202020;stroke-width:8.64"/>
	<circle cx="2299.03" cy="684.24" r="15.59" style="fill:none;stroke:#202020;stroke-width:8.64"/>
	<circle cx="2300.02" cy="692.28" r="15.59" style="fill:none;stroke:#202020;stroke-width:8.64"/>
	<circle cx="2305.09" cy="700.32" r="15.59" style="fill:none;stroke:#202020;stroke-width:8.64"/>
	<circle cx="2306.21" cy="708.49" r="15.59" style="fill:none;stroke:#202020;stroke-width:8.64"/>
	<circle cx="2309.92" cy="716.78" r="15.59" style="fill:none;stroke:#202020;stroke-width:8.64"/>
	<circle cx="2310.41" cy="725.07" r="15.59" style="fill:none;stroke:#202020;stroke-width:8.64"/>
	<circle cx="2312.76" cy="733.37" r="15.59" style="fill:none;stroke:#202020;stroke-width:8.64"/>
	<circle cx="2313.51" cy="741.90" r="15.59" style="fill:none;stroke:#202020;stroke-width:8.64"/>
	<circle cx="2313.88" cy="750.44" r="15.59" style="fill:none;stroke:#202020;stroke-width:8.64"/>
	<circle cx="2322.54" cy="758.98" r="15.59" style="fill:none;stroke:#202020;stroke-width:8.64"/>
	<circle cx="2328.73" cy="767.65" r="15.59" style="fill:none;stroke:#202020;stroke-width:8.64"/>
	<circle cx="2328.85" cy="776.43" r="15.59" style="fill:none;stroke:#202020;stroke-width:8.64"/>
	<circle cx="2331.82" cy="785.22" r="15.59" style="fill:none;stroke:#202020;stroke-width:8.64"/>
	<circle cx="2332.94" cy="794.13" r="15.59" style="fill:none;stroke:#202020;stroke-width:8.64"/>
	<circle cx="2333.68" cy="803.16" r="15.59" style="fill:none;stroke:#202020;stroke-width:8.64"/>
	<circle cx="2336.03" cy="812.20" r="15.59" style="fill:none;stroke:#202020;stroke-width:8.64"/>
	<circle cx="2336.52" cy="821.23" r="15.59" style="fill:none;stroke:#202020;stroke-width:8.64"/>
	<circle cx="2340.24" cy="830.51" r="15.59" style="fill:none;stroke:#202020;stroke-width:8.64"/>
	<circle cx="2340.24" cy="839.79" r="15.59" style="fill:none;stroke:#202020;stroke-width:8.64"/>
	<circle cx="2347.79" cy="849.20" r="15.59" style="fill:none;stroke:#202020;stroke-width:8.64"/>
	<circle cx="2355.33" cy="858.60" r="15.59" style="fill:none;stroke:#202020;stroke-width:8.64"/>
	<circle cx="2357.81" cy="868.13" r="15.59" style="fill:none;stroke:#202020;stroke-width:8.64"/>
	<circle cx="2364.12" cy="877.66" r="15.59" style="fill:none;stroke:#202020;stroke-width:8.64"/>
	<circle cx="2368.82" cy="887.44" r="15.59" style="fill:none;stroke:#202020;stroke-width:8.64"/>
	<circle cx="2373.90" cy="897.09" r="15.59" style="fill:none;stroke:#202020;stroke-width:8.64"/>
	<circle cx="2377.24" cy="906.99" r="15.59" style="fill:none;stroke:#202020;stroke-width:8.64"/>
	<circle cx="2380.70" cy="916.89" r="15.59" style="fill:none;stroke:#202020;stroke-width:8.64"/>
	<circle cx="2385.78" cy="926.92" r="15.59" style="fill:none;stroke:#202020;stroke-width:8.64"/>
	<circle cx="2386.77" cy="937.06" r="15.59" style="fill:none;stroke:#202020;stroke-width:8.64"/>
	<circle cx="2386.89" cy="947.21" r="15.59" style="fill:none;stroke:#202020;stroke-width:8.64"/>
	<circle cx="2388.62" cy="957.48" r="15.59" style="fill:none;stroke:#202020;stroke-width:8.64"/>
	<circle cx="2391.84" cy="967.76" r="15.59" style="fill:none;stroke:#202020;stroke-width:8.64"/>
	<circle cx="2397.29" cy="978.27" r="15.59" style="fill:none;stroke:#202020;stroke-width:8.64"/>
	<circle cx="2399.02" cy="988.79" r="15.59" style="fill:none;stroke:#202020;stroke-width:8.64"/>
	<circle cx="2400.38" cy="999.31" r="15.59" style="fill:none;stroke:#202020;stroke-width:8.64"/>
	<circle cx="2400.63" cy="1010.08" r="15.59" style="fill:none;stroke:#202020;stroke-width:8.64"/>
	<circle cx="2401.86" cy="1020.85" r="15.59" style="fill:none;stroke:#202020;stroke-width:8.64"/>
	<circle cx="2404.46" cy="1031.74" r="15.59" style="fill:none;stroke:#202020;stroke-width:8.64"/>
	<circle cx="2407.93" cy="1042.63" r="15.59" style="fill:none;stroke:#202020;stroke-width:8.64"/>
	<circle cx="2421.79" cy="1053.64" r="15.59" style="fill:none;stroke:#202020;stroke-width:8.64"/>
	<circle cx="2432.80" cy="1064.90" r="15.59" style="fill:none;stroke:#202020;stroke-width:8.64"/>
	<circle cx="2439.48" cy="1076.04" r="15.59" style="fill:none;stroke:#202020;stroke-width:8.64"/>
	<circle cx="2440.23" cy="1087.43" r="15.59" style="fill:none;stroke:#202020;stroke-width:8.64"/>
	<circle cx="2444.80" cy="1098.81" r="15.59" style="fill:none;stroke:#202020;stroke-width:8.64"/>
	<circle cx="2453.10" cy="1110.32" r="15.59" style="fill:none;stroke:#202020;stroke-width:8.64"/>
	<circle cx="2454.83" cy="1121.95" r="15.59" style="fill:none;stroke:#202020;stroke-width:8.64"/>
	<circle cx="2455.45" cy="1133.71" r="15.59" style="fill:none;stroke:#202020;stroke-width:8.64"/>
	<circle cx="2468.07" cy="1145.47" r="15.59" style="fill:none;stroke:#202020;stroke-width:8.64"/>
	<circle cx="2477.23" cy="1157.47" r="15.59" style="fill:none;stroke:#202020;stroke-width:8.64"/>
	<circle cx="2477.23" cy="1169.47" r="15.59" style="fill:none;stroke:#202020;stroke-width:8.64"/>
	<circle cx="2477.72" cy="1181.48" r="15.59" style="fill:none;stroke:#202020;stroke-width:8.64"/>
	<circle cx="2489.60" cy="1193.73" r="15.59" style="fill:none;stroke:#202020;stroke-width:8.64"/>
	<circle cx="2493.56" cy="1206.11" r="15.59" style="fill:none;stroke:#202020;stroke-width:8.64"/>
	<circle cx="2499.50" cy="1218.48" r="15.59" style="fill:none;stroke:#202020;stroke-width:8.64"/>
	<circle cx="2500.12" cy="1230.98" r="15.59" style="fill:none;stroke:#202020;stroke-width:8.64"/>
	<circle cx="2501.48" cy="1243.60" r="15.59" style="fill:none;stroke:#202020;stroke-width:8.64"/>
	<circle cx="2505.20" cy="1256.35" r="15.59" style="fill:none;stroke:#202020;stroke-width:8.64"/>
	<circle cx="2510.89" cy="1269.22" r="15.59" style="fill:none;stroke:#202020;stroke-width:8.64"/>
	<circle cx="2520.91" cy="1282.21" r="15.59" style="fill:none;stroke:#202020;stroke-width:8.64"/>
	<circle cx="2523.14" cy="1295.33" r="15.59" style="fill:none;stroke:#202020;stroke-width:8.64"/>
	<circle cx="2526.73" cy="1308.45" r="15.59" style="fill:none;stroke:#202020;stroke-width:8.64"/>
	<circle cx="2526.73" cy="1321.82" r="15.59" style="fill:none;stroke:#202020;stroke-width:8.64"/>
	<circle cx="2531.06" cy="1335.18" r="15.59" style="fill:none;stroke:#202020;stroke-width:8.64"/>
	<circle cx="2538.36" cy="1348.79" r="15.59" style="fill:none;stroke:#202020;stroke-width:8.64"/>
	<circle cx="2544.18" cy="1362.41" r="15.59" style="fill:none;stroke:#202020;stroke-width:8.64"/>
	<circle cx="2549.37" cy="1376.27" r="15.59" style="fill:none;stroke:#202020;stroke-width:8.64"/>
	<circle cx="2549.87" cy="1390.13" r="15.59" style="fill:none;stroke:#202020;stroke-width:8.64"/>
	<circle cx="2551.97" cy="1404.24" r="15.59" style="fill:none;stroke:#202020;stroke-width:8.64"/>
	<circle cx="2555.93" cy="1418.34" r="15.59" style="fill:none;stroke:#202020;stroke-width:8.64"/>
	<circle cx="2556.43" cy="1432.70" r="15.59" style="fill:none;stroke:#202020;stroke-width:8.64"/>
	<circle cx="2559.65" cy="1447.05" r="15.59" style="fill:none;stroke:#202020;stroke-width:8.64"/>
	<circle cx="2562.49" cy="1461.66" r="15.59" style="fill:none;stroke:#202020;stroke-width:8.64"/>
	<circle cx="2570.91" cy="1476.38" r="15.59" style="fill:none;stroke:#202020;stroke-width:8.64"/>
	<circle cx="2590.21" cy="1491.23" r="15.59" style="fill:none;stroke:#202020;stroke-width:8.64"/>
	<circle cx="2591.32" cy="1506.21" r="15.59" style="fill:none;stroke:#202020;stroke-width:8.64"/>
	<circle cx="2596.15" cy="1521.31" r="15.59" style="fill:none;stroke:#202020;stroke-width:8.64"/>
	<circle cx="2596.89" cy="1536.53" r="15.59" style="fill:none;stroke:#202020;stroke-width:8.64"/>
	<circle cx="2602.09" cy="1552.00" r="15.59" style="fill:none;stroke:#202020;stroke-width:8.64"/>
	<circle cx="2609.15" cy="1567.59" r="15.59" style="fill:none;stroke:#202020;stroke-width:8.64"/>
	<circle cx="2616.45" cy="1583.31" r="15.59" style="fill:none;stroke:#202020;stroke-width:8.64"/>
	<circle cx="2619.29" cy="1599.27" r="15.59" style="fill:none;stroke:#202020;stroke-width:8.64"/>
	<circle cx="2630.93" cy="1615.24" r="15.59" style="fill:none;stroke:#202020;stroke-width:8.64"/>
	<circle cx="2632.29" cy="1631.57" r="15.59" style="fill:none;stroke:#202020;stroke-width:8.64"/>
	<circle cx="2632.41" cy="1647.91" r="15.59" style="fill:none;stroke:#202020;stroke-width:8.64"/>
	<circle cx="2646.64" cy="1664.49" r="15.59" style="fill:none;stroke:#202020;stroke-width:8.64"/>
	<circle cx="2667.43" cy="1681.32" r="15.59" style="fill:none;stroke:#202020;stroke-width:8.64"/>
	<circle cx="2674.98" cy="1698.27" r="15.59" style="fill:none;stroke:#202020;stroke-width:8.64"/>
	<circle cx="2677.08" cy="1715.35" r="15.59" style="fill:none;stroke:#202020;stroke-width:8.64"/>
	<circle cx="2699.24" cy="1732.68" r="15.59" style="fill:none;stroke:#202020;stroke-width:8.64"/>
	<circle cx="2709.26" cy="1750.25" r="15.59" style="fill:none;stroke:#202020;stroke-width:8.64"/>
	<circle cx="2711.73" cy="1767.95" r="15.59" style="fill:none;stroke:#202020;stroke-width:8.64"/>
	<circle cx="2723.99" cy="1785.89" r="15.59" style="fill:none;stroke:#202020;stroke-width:8.64"/>
	<circle cx="2740.69" cy="1804.21" r="15.59" style="fill:none;stroke:#202020;stroke-width:8.64"/>
	<circle cx="2748.24" cy="1822.52" r="15.59" style="fill:none;stroke:#202020;stroke-width:8.64"/>
	<circle cx="2750.47" cy="1841.21" r="15.59" style="fill:none;stroke:#202020;stroke-width:8.64"/>
	<circle cx="2761.61" cy="1860.14" r="15.59" style="fill:none;stroke:#202020;stroke-width:8.64"/>
	<circle cx="2784.87" cy="1879.33" r="15.59" style="fill:none;stroke:#202020;stroke-width:8.64"/>
	<circle cx="2787.35" cy="1898.76" r="15.59" style="fill:none;stroke:#202020;stroke-width:8.64"/>
	<circle cx="2787.35" cy="1918.56" r="15.59" style="fill:none;stroke:#202020;stroke-width:8.64"/>
	<circle cx="2790.93" cy="1938.60" r="15.59" style="fill:none;stroke:#202020;stroke-width:8.64"/>
	<circle cx="2804.79" cy="1959.02" r="15.59" style="fill:none;stroke:#202020;stroke-width:8.64"/>
	<circle cx="2829.54" cy="1979.69" r="15.59" style="fill:none;stroke:#202020;stroke-width:8.64"/>
	<circle cx="2830.91" cy="2000.85" r="15.59" style="fill:none;stroke:#202020;stroke-width:8.64"/>
	<circle cx="2915.92" cy="2022.26" r="15.59" style="fill:none;stroke:#202020;stroke-width:8.64"/>
	<circle cx="2917.41" cy="2044.17" r="15.59" style="fill:none;stroke:#202020;stroke-width:8.64"/>
	<circle cx="2926.81" cy="2066.57" r="15.59" style="fill:none;stroke:#202020;stroke-width:8.64"/>
	<circle cx="2930.28" cy="2089.46" r="15.59" style="fill:none;stroke:#202020;stroke-width:8.64"/>
	<circle cx="2969.13" cy="2112.85" r="15.59" style="fill:none;stroke:#202020;stroke-width:8.64"/>
	<circle cx="3025.07" cy="2136.98" r="15.59" style="fill:none;stroke:#202020;stroke-width:8.64"/>
	<circle cx="3025.19" cy="2161.73" r="15.59" style="fill:none;stroke:#202020;stroke-width:8.64"/>
	<circle cx="3133.23" cy="2187.47" r="15.59" style="fill:none;stroke:#202020;stroke-width:8.64"/>
	<circle cx="3209.21" cy="2214.20" r="15.59" style="fill:none;stroke:#202020;stroke-width:8.64"/>
	<circle cx="3362.29" cy="2242.54" r="15.59" style="fill:none;stroke:#202020;stroke-width:8.64"/>
	<circle cx="3795.66" cy="2273.36" r="15.59" style="fill:none;stroke:#202020;stroke-width:8.64"/>
	<line x1="495.00" y1="2354.66" x2="495.00" y2="100.86" style="stroke:#404040;stroke-width:5.76"/>
	<line x1="495.00" y1="2291.30" x2="454.91" y2="2291.30" style="stroke:#404040;stroke-width:5.76"/>
	<text x="434.98" y="2326.33" style="font-family:'Helvetica';font-size:99.99px;fill:#000000" text-anchor="end">0</text>
	<line x1="495.00" y1="1866.33" x2="454.91" y2="1866.33" style="stroke:#404040;stroke-width:5.76"/>
	<text x="434.98" y="1901.36" style="font-family:'Helvetica';font-size:99.99px;fill:#000000" text-anchor="end">50</text>
	<line x1="495.00" y1="1441.49" x2="454.91" y2="1441.49" style="stroke:#404040;stroke-width:5.76"/>
	<text x="434.98" y="1476.51" style="font-family:'Helvetica';font-size:99.99px;fill:#000000" text-anchor="end">100</text>
	<line x1="495.00" y1="1016.64" x2="454.91" y2="1016.64" style="stroke:#404040;stroke-width:5.76"/>
	<text x="434.98" y="1051.67" style="font-family:'Helvetica';font-size:99.99px;fill:#000000" text-anchor="end">150</text>
	<line x1="495.00" y1="591.67" x2="454.91" y2="591.67" style="stroke:#404040;stroke-width:5.76"/>
	<text x="434.98" y="626.70" style="font-family:'Helvetica';font-size:99.99px;fill:#000000" text-anchor="end">200</text>
	<line x1="495.00" y1="166.82" x2="454.91" y2="166.82" style="stroke:#404040;stroke-width:5.76"/>
	<text x="434.98" y="201.85" style="font-family:'Helvetica';font-size:99.99px;fill:#000000" text-anchor="end">250</text>
	<text x="190.71" y="1227.76" style="font-family:'Helvetica';font-size:99.99px;fill:#000000" transform="rotate(-90 190.71,1227.76)" text-anchor="middle">Probability density</text>
	<line x1="495.00" y1="2354.66" x2="3859.02" y2="2354.66" style="stroke:#404040;stroke-width:5.76"/>
	<line x1="558.36" y1="2354.66" x2="558.36" y2="2394.64" style="stroke:#404040;stroke-width:5.76"/>
	<text x="558.36" y="2484.62" style="font-family:'Helvetica';font-size:99.99px;fill:#000000" text-anchor="middle">-.004</text>
	<line x1="1203.10" y1="2354.66" x2="1203.10" y2="2394.64" style="stroke:#404040;stroke-width:5.76"/>
	<text x="1203.10" y="2484.62" style="font-family:'Helvetica';font-size:99.99px;fill:#000000" text-anchor="middle">-.002</text>
	<line x1="1847.84" y1="2354.66" x2="1847.84" y2="2394.64" style="stroke:#404040;stroke-width:5.76"/>
	<text x="1847.84" y="2484.62" style="font-family:'Helvetica';font-size:99.99px;fill:#000000" text-anchor="middle">0</text>
	<line x1="2492.57" y1="2354.66" x2="2492.57" y2="2394.64" style="stroke:#404040;stroke-width:5.76"/>
	<text x="2492.57" y="2484.62" style="font-family:'Helvetica';font-size:99.99px;fill:#000000" text-anchor="middle">.002</text>
	<line x1="3137.31" y1="2354.66" x2="3137.31" y2="2394.64" style="stroke:#404040;stroke-width:5.76"/>
	<text x="3137.31" y="2484.62" style="font-family:'Helvetica';font-size:99.99px;fill:#000000" text-anchor="middle">.004</text>
	<line x1="3782.17" y1="2354.66" x2="3782.17" y2="2394.64" style="stroke:#404040;stroke-width:5.76"/>
	<text x="3782.17" y="2484.62" style="font-family:'Helvetica';font-size:99.99px;fill:#000000" text-anchor="middle">.006</text>
	<text x="2177.01" y="2594.64" style="font-family:'Helvetica';font-size:99.99px;fill:#000000" text-anchor="middle">_b[did]</text>
	<text x="512.20" y="2731.88" style="font-family:'Helvetica';font-size:99.99px;fill:#000000">normal</text>
</svg>
