<?xml version="1.0" encoding="UTF-8" standalone="no"?>
<!-- This is a Stata 17.0 generated SVG file (http://www.stata.com) -->

<svg version="1.1" width="5.500in" height="4.000in" viewBox="0 0 3960 2880" xmlns="http://www.w3.org/2000/svg" xmlns:xlink="http://www.w3.org/1999/xlink">
	<desc>Stata Graph - 平行趋势检验</desc>
	<rect x="0" y="0" width="3960" height="2880" style="fill:#FFFFFF;stroke:none"/>
	<rect x="0.00" y="0.00" width="3959.88" height="2880.00" style="fill:#FFFFFF"/>
	<rect x="2.88" y="2.88" width="3954.12" height="2874.24" style="fill:none;stroke:#FFFFFF;stroke-width:5.76"/>
	<rect x="400.83" y="100.86" width="3458.19" height="2388.33" style="fill:#FFFFFF"/>
	<rect x="403.71" y="103.74" width="3452.43" height="2382.57" style="fill:none;stroke:#FFFFFF;stroke-width:5.76"/>
	<line x1="400.83" y1="2329.17" x2="3859.02" y2="2329.17" style="stroke:#E8E8E8;stroke-width:8.64"/>
	<line x1="400.83" y1="1896.16" x2="3859.02" y2="1896.16" style="stroke:#E8E8E8;stroke-width:8.64"/>
	<line x1="400.83" y1="1463.14" x2="3859.02" y2="1463.14" style="stroke:#E8E8E8;stroke-width:8.64"/>
	<line x1="400.83" y1="1030.13" x2="3859.02" y2="1030.13" style="stroke:#E8E8E8;stroke-width:8.64"/>
	<line x1="400.83" y1="597.11" x2="3859.02" y2="597.11" style="stroke:#E8E8E8;stroke-width:8.64"/>
	<line x1="400.83" y1="164.22" x2="3859.02" y2="164.22" style="stroke:#E8E8E8;stroke-width:8.64"/>
	<line x1="1796.73" y1="2489.19" x2="1796.73" y2="100.86" style="stroke:#000000;stroke-width:8.64"/>
	<line x1="400.83" y1="1896.16" x2="3859.02" y2="1896.16" style="stroke:#FF0000;stroke-width:8.64"/>
	<line x1="464.19" y1="2204.68" x2="464.19" y2="1590.86" style="stroke:#202020;stroke-width:8.64"/>
	<line x1="442.16" y1="1590.86" x2="486.21" y2="1590.86" stroke-linecap="round" style="stroke:#202020;stroke-width:8.64"/>
	<line x1="442.16" y1="2204.68" x2="486.21" y2="2204.68" stroke-linecap="round" style="stroke:#202020;stroke-width:8.64"/>
	<line x1="797.32" y1="2182.52" x2="797.32" y2="1590.11" style="stroke:#202020;stroke-width:8.64"/>
	<line x1="775.29" y1="1590.11" x2="819.35" y2="1590.11" stroke-linecap="round" style="stroke:#202020;stroke-width:8.64"/>
	<line x1="775.29" y1="2182.52" x2="819.35" y2="2182.52" stroke-linecap="round" style="stroke:#202020;stroke-width:8.64"/>
	<line x1="1130.46" y1="2165.82" x2="1130.46" y2="1561.65" style="stroke:#202020;stroke-width:8.64"/>
	<line x1="1108.43" y1="1561.65" x2="1152.48" y2="1561.65" stroke-linecap="round" style="stroke:#202020;stroke-width:8.64"/>
	<line x1="1108.43" y1="2165.82" x2="1152.48" y2="2165.82" stroke-linecap="round" style="stroke:#202020;stroke-width:8.64"/>
	<line x1="1463.59" y1="2425.82" x2="1463.59" y2="1839.60" style="stroke:#202020;stroke-width:8.64"/>
	<line x1="1441.56" y1="1839.60" x2="1485.62" y2="1839.60" stroke-linecap="round" style="stroke:#202020;stroke-width:8.64"/>
	<line x1="1441.56" y1="2425.82" x2="1485.62" y2="2425.82" stroke-linecap="round" style="stroke:#202020;stroke-width:8.64"/>
	<line x1="1796.73" y1="1896.16" x2="1796.73" y2="1896.16" style="stroke:#202020;stroke-width:8.64"/>
	<line x1="1774.70" y1="1896.16" x2="1818.75" y2="1896.16" stroke-linecap="round" style="stroke:#202020;stroke-width:8.64"/>
	<line x1="1774.70" y1="1896.16" x2="1818.75" y2="1896.16" stroke-linecap="round" style="stroke:#202020;stroke-width:8.64"/>
	<line x1="2129.99" y1="1640.73" x2="2129.99" y2="1215.51" style="stroke:#202020;stroke-width:8.64"/>
	<line x1="2107.96" y1="1215.51" x2="2152.01" y2="1215.51" stroke-linecap="round" style="stroke:#202020;stroke-width:8.64"/>
	<line x1="2107.96" y1="1640.73" x2="2152.01" y2="1640.73" stroke-linecap="round" style="stroke:#202020;stroke-width:8.64"/>
	<line x1="2463.12" y1="1296.07" x2="2463.12" y2="632.13" style="stroke:#202020;stroke-width:8.64"/>
	<line x1="2441.09" y1="632.13" x2="2485.15" y2="632.13" stroke-linecap="round" style="stroke:#202020;stroke-width:8.64"/>
	<line x1="2441.09" y1="1296.07" x2="2485.15" y2="1296.07" stroke-linecap="round" style="stroke:#202020;stroke-width:8.64"/>
	<line x1="2796.26" y1="1723.77" x2="2796.26" y2="1052.16" style="stroke:#202020;stroke-width:8.64"/>
	<line x1="2774.23" y1="1052.16" x2="2818.28" y2="1052.16" stroke-linecap="round" style="stroke:#202020;stroke-width:8.64"/>
	<line x1="2774.23" y1="1723.77" x2="2818.28" y2="1723.77" stroke-linecap="round" style="stroke:#202020;stroke-width:8.64"/>
	<line x1="3129.39" y1="1830.57" x2="3129.39" y2="1158.58" style="stroke:#202020;stroke-width:8.64"/>
	<line x1="3107.36" y1="1158.58" x2="3151.42" y2="1158.58" stroke-linecap="round" style="stroke:#202020;stroke-width:8.64"/>
	<line x1="3107.36" y1="1830.57" x2="3151.42" y2="1830.57" stroke-linecap="round" style="stroke:#202020;stroke-width:8.64"/>
	<line x1="3462.53" y1="978.03" x2="3462.53" y2="311.98" style="stroke:#202020;stroke-width:8.64"/>
	<line x1="3440.50" y1="311.98" x2="3484.55" y2="311.98" stroke-linecap="round" style="stroke:#202020;stroke-width:8.64"/>
	<line x1="3440.50" y1="978.03" x2="3484.55" y2="978.03" stroke-linecap="round" style="stroke:#202020;stroke-width:8.64"/>
	<line x1="3795.78" y1="1045.10" x2="3795.78" y2="368.29" style="stroke:#202020;stroke-width:8.64"/>
	<line x1="3773.76" y1="368.29" x2="3817.81" y2="368.29" stroke-linecap="round" style="stroke:#202020;stroke-width:8.64"/>
	<line x1="3773.76" y1="1045.10" x2="3817.81" y2="1045.10" stroke-linecap="round" style="stroke:#202020;stroke-width:8.64"/>
	<line x1="464.06" y1="1897.89" x2="521.61" y2="1895.91" style="stroke:#000000;stroke-width:8.64"/>
	<line x1="550.44" y1="1894.92" x2="607.98" y2="1892.94" style="stroke:#000000;stroke-width:8.64"/>
	<line x1="636.82" y1="1891.95" x2="694.24" y2="1889.97" style="stroke:#000000;stroke-width:8.64"/>
	<line x1="723.07" y1="1888.98" x2="780.62" y2="1886.88" style="stroke:#000000;stroke-width:8.64"/>
	<line x1="809.45" y1="1885.51" x2="866.87" y2="1881.68" style="stroke:#000000;stroke-width:8.64"/>
	<line x1="895.58" y1="1879.70" x2="953.12" y2="1875.74" style="stroke:#000000;stroke-width:8.64"/>
	<line x1="981.83" y1="1873.88" x2="1039.25" y2="1870.04" style="stroke:#000000;stroke-width:8.64"/>
	<line x1="1068.09" y1="1868.06" x2="1125.51" y2="1864.10" style="stroke:#000000;stroke-width:8.64"/>
	<line x1="1149.02" y1="1878.83" x2="1193.82" y2="1914.97" style="stroke:#000000;stroke-width:8.64"/>
	<line x1="1216.21" y1="1933.16" x2="1261.01" y2="1969.17" style="stroke:#000000;stroke-width:8.64"/>
	<line x1="1283.41" y1="1987.36" x2="1328.21" y2="2023.50" style="stroke:#000000;stroke-width:8.64"/>
	<line x1="1350.61" y1="2041.57" x2="1395.41" y2="2077.70" style="stroke:#000000;stroke-width:8.64"/>
	<line x1="1417.80" y1="2095.77" x2="1462.60" y2="2131.91" style="stroke:#000000;stroke-width:8.64"/>
	<line x1="1486.11" y1="2116.81" x2="1533.02" y2="2083.52" style="stroke:#000000;stroke-width:8.64"/>
	<line x1="1556.53" y1="2066.81" x2="1603.43" y2="2033.40" style="stroke:#000000;stroke-width:8.64"/>
	<line x1="1626.94" y1="2016.69" x2="1673.97" y2="1983.40" style="stroke:#000000;stroke-width:8.64"/>
	<line x1="1697.48" y1="1966.70" x2="1744.38" y2="1933.41" style="stroke:#000000;stroke-width:8.64"/>
	<line x1="1767.89" y1="1916.70" x2="1796.73" y2="1896.16" style="stroke:#000000;stroke-width:8.64"/>
	<line x1="1796.73" y1="1896.16" x2="1809.60" y2="1878.09" style="stroke:#000000;stroke-width:8.64"/>
	<line x1="1826.18" y1="1854.70" x2="1859.59" y2="1807.80" style="stroke:#000000;stroke-width:8.64"/>
	<line x1="1876.30" y1="1784.28" x2="1909.71" y2="1737.38" style="stroke:#000000;stroke-width:8.64"/>
	<line x1="1926.42" y1="1713.99" x2="1959.83" y2="1667.09" style="stroke:#000000;stroke-width:8.64"/>
	<line x1="1976.41" y1="1643.58" x2="2009.82" y2="1596.67" style="stroke:#000000;stroke-width:8.64"/>
	<line x1="2026.53" y1="1573.16" x2="2059.94" y2="1526.26" style="stroke:#000000;stroke-width:8.64"/>
	<line x1="2076.65" y1="1502.87" x2="2110.06" y2="1455.96" style="stroke:#000000;stroke-width:8.64"/>
	<line x1="2126.77" y1="1432.45" x2="2129.86" y2="1428.12" style="stroke:#000000;stroke-width:8.64"/>
	<line x1="2129.86" y1="1428.12" x2="2160.30" y2="1385.67" style="stroke:#000000;stroke-width:8.64"/>
	<line x1="2177.13" y1="1362.28" x2="2210.67" y2="1315.50" style="stroke:#000000;stroke-width:8.64"/>
	<line x1="2227.50" y1="1292.11" x2="2261.16" y2="1245.34" style="stroke:#000000;stroke-width:8.64"/>
	<line x1="2277.87" y1="1221.95" x2="2311.53" y2="1175.17" style="stroke:#000000;stroke-width:8.64"/>
	<line x1="2328.36" y1="1151.78" x2="2361.89" y2="1105.00" style="stroke:#000000;stroke-width:8.64"/>
	<line x1="2378.72" y1="1081.61" x2="2412.26" y2="1034.83" style="stroke:#000000;stroke-width:8.64"/>
	<line x1="2429.09" y1="1011.44" x2="2462.63" y2="964.66" style="stroke:#000000;stroke-width:8.64"/>
	<line x1="2480.45" y1="986.32" x2="2515.96" y2="1031.61" style="stroke:#000000;stroke-width:8.64"/>
	<line x1="2533.78" y1="1054.26" x2="2569.42" y2="1099.55" style="stroke:#000000;stroke-width:8.64"/>
	<line x1="2587.12" y1="1122.20" x2="2622.76" y2="1167.49" style="stroke:#000000;stroke-width:8.64"/>
	<line x1="2640.58" y1="1190.14" x2="2676.09" y2="1235.43" style="stroke:#000000;stroke-width:8.64"/>
	<line x1="2693.91" y1="1258.08" x2="2729.43" y2="1303.38" style="stroke:#000000;stroke-width:8.64"/>
	<line x1="2747.37" y1="1326.02" x2="2783.01" y2="1371.19" style="stroke:#000000;stroke-width:8.64"/>
	<line x1="2803.31" y1="1390.37" x2="2858.13" y2="1407.82" style="stroke:#000000;stroke-width:8.64"/>
	<line x1="2885.60" y1="1416.61" x2="2940.42" y2="1434.18" style="stroke:#000000;stroke-width:8.64"/>
	<line x1="2967.77" y1="1442.97" x2="3022.59" y2="1460.54" style="stroke:#000000;stroke-width:8.64"/>
	<line x1="3050.07" y1="1469.33" x2="3104.89" y2="1486.78" style="stroke:#000000;stroke-width:8.64"/>
	<line x1="3130.50" y1="1491.85" x2="3151.54" y2="1438.27" style="stroke:#000000;stroke-width:8.64"/>
	<line x1="3162.06" y1="1411.41" x2="3183.10" y2="1357.83" style="stroke:#000000;stroke-width:8.64"/>
	<line x1="3193.62" y1="1330.97" x2="3214.65" y2="1277.39" style="stroke:#000000;stroke-width:8.64"/>
	<line x1="3225.17" y1="1250.53" x2="3246.21" y2="1196.95" style="stroke:#000000;stroke-width:8.64"/>
	<line x1="3256.73" y1="1170.09" x2="3277.77" y2="1116.51" style="stroke:#000000;stroke-width:8.64"/>
	<line x1="3288.29" y1="1089.78" x2="3309.32" y2="1036.07" style="stroke:#000000;stroke-width:8.64"/>
	<line x1="3319.84" y1="1009.34" x2="3340.88" y2="955.63" style="stroke:#000000;stroke-width:8.64"/>
	<line x1="3351.27" y1="928.90" x2="3372.31" y2="875.31" style="stroke:#000000;stroke-width:8.64"/>
	<line x1="3382.83" y1="848.46" x2="3403.87" y2="794.87" style="stroke:#000000;stroke-width:8.64"/>
	<line x1="3414.26" y1="768.02" x2="3435.30" y2="714.43" style="stroke:#000000;stroke-width:8.64"/>
	<line x1="3445.82" y1="687.58" x2="3462.53" y2="645.01" style="stroke:#000000;stroke-width:8.64"/>
	<line x1="3462.53" y1="645.01" x2="3474.16" y2="647.23" style="stroke:#000000;stroke-width:8.64"/>
	<line x1="3502.50" y1="652.43" x2="3559.17" y2="662.95" style="stroke:#000000;stroke-width:8.64"/>
	<line x1="3587.51" y1="668.15" x2="3644.07" y2="678.67" style="stroke:#000000;stroke-width:8.64"/>
	<line x1="3672.41" y1="683.86" x2="3728.96" y2="694.38" style="stroke:#000000;stroke-width:8.64"/>
	<line x1="3757.30" y1="699.58" x2="3795.66" y2="706.76" style="stroke:#000000;stroke-width:8.64"/>
	<path d="" stroke-linejoin="round" style="fill:none;stroke:#000000;stroke-width:8.64"/>
	<circle cx="464.06" cy="1897.89" r="15.59" style="fill:none;stroke:#000000;stroke-width:8.64"/>
	<circle cx="797.20" cy="1886.38" r="15.59" style="fill:none;stroke:#000000;stroke-width:8.64"/>
	<circle cx="1130.33" cy="1863.86" r="15.59" style="fill:none;stroke:#000000;stroke-width:8.64"/>
	<circle cx="1463.59" cy="2132.77" r="15.59" style="fill:none;stroke:#000000;stroke-width:8.64"/>
	<circle cx="1796.73" cy="1896.16" r="15.59" style="fill:none;stroke:#000000;stroke-width:8.64"/>
	<circle cx="2129.86" cy="1428.12" r="15.59" style="fill:none;stroke:#000000;stroke-width:8.64"/>
	<circle cx="2463.00" cy="964.17" r="15.59" style="fill:none;stroke:#000000;stroke-width:8.64"/>
	<circle cx="2796.13" cy="1388.02" r="15.59" style="fill:none;stroke:#000000;stroke-width:8.64"/>
	<circle cx="3129.39" cy="1494.70" r="15.59" style="fill:none;stroke:#000000;stroke-width:8.64"/>
	<circle cx="3462.53" cy="645.01" r="15.59" style="fill:none;stroke:#000000;stroke-width:8.64"/>
	<circle cx="3795.66" cy="706.76" r="15.59" style="fill:none;stroke:#000000;stroke-width:8.64"/>
	<line x1="400.83" y1="2489.19" x2="400.83" y2="100.86" style="stroke:#404040;stroke-width:5.76"/>
	<line x1="400.83" y1="2329.17" x2="360.73" y2="2329.17" style="stroke:#404040;stroke-width:5.76"/>
	<text x="340.81" y="2364.20" style="font-family:'Helvetica';font-size:99.99px;fill:#000000" text-anchor="end">-.02</text>
	<line x1="400.83" y1="1896.16" x2="360.73" y2="1896.16" style="stroke:#404040;stroke-width:5.76"/>
	<text x="340.81" y="1931.19" style="font-family:'Helvetica';font-size:99.99px;fill:#000000" text-anchor="end">0</text>
	<line x1="400.83" y1="1463.14" x2="360.73" y2="1463.14" style="stroke:#404040;stroke-width:5.76"/>
	<text x="340.81" y="1498.17" style="font-family:'Helvetica';font-size:99.99px;fill:#000000" text-anchor="end">.02</text>
	<line x1="400.83" y1="1030.13" x2="360.73" y2="1030.13" style="stroke:#404040;stroke-width:5.76"/>
	<text x="340.81" y="1065.16" style="font-family:'Helvetica';font-size:99.99px;fill:#000000" text-anchor="end">.04</text>
	<line x1="400.83" y1="597.11" x2="360.73" y2="597.11" style="stroke:#404040;stroke-width:5.76"/>
	<text x="340.81" y="632.14" style="font-family:'Helvetica';font-size:99.99px;fill:#000000" text-anchor="end">.06</text>
	<line x1="400.83" y1="164.22" x2="360.73" y2="164.22" style="stroke:#404040;stroke-width:5.76"/>
	<text x="340.81" y="199.25" style="font-family:'Helvetica';font-size:99.99px;fill:#000000" text-anchor="end">.08</text>
	<line x1="400.83" y1="2489.19" x2="3859.02" y2="2489.19" style="stroke:#404040;stroke-width:5.76"/>
	<line x1="464.19" y1="2489.19" x2="464.19" y2="2529.16" style="stroke:#404040;stroke-width:5.76"/>
	<text x="464.19" y="2619.14" style="font-family:'Helvetica';font-size:99.99px;fill:#000000" text-anchor="middle">-5</text>
	<line x1="2129.99" y1="2489.19" x2="2129.99" y2="2529.16" style="stroke:#404040;stroke-width:5.76"/>
	<text x="2129.99" y="2619.14" style="font-family:'Helvetica';font-size:99.99px;fill:#000000" text-anchor="middle">0</text>
	<line x1="3795.78" y1="2489.19" x2="3795.78" y2="2529.16" style="stroke:#404040;stroke-width:5.76"/>
	<text x="3795.78" y="2619.14" style="font-family:'Helvetica';font-size:99.99px;fill:#000000" text-anchor="middle">5</text>
	<text x="2129.99" y="2729.16" style="font-family:'Helvetica';font-size:99.99px;fill:#000000" text-anchor="middle">Time</text>
</svg>
